<?xml version="1.0" encoding="UTF-8"?>
<!DOCTYPE svg PUBLIC "-//W3C//DTD SVG 1.1//EN" "http://www.w3.org/Graphics/SVG/1.1/DTD/svg11.dtd">
<!-- Creator: CorelDRAW X8 -->
<svg xmlns="http://www.w3.org/2000/svg" xml:space="preserve" width="220mm" height="220mm" version="1.1" style="shape-rendering:geometricPrecision; text-rendering:geometricPrecision; image-rendering:optimizeQuality; fill-rule:evenodd; clip-rule:evenodd"
viewBox="0 0 22000 22000"
 xmlns:xlink="http://www.w3.org/1999/xlink">
 <defs>
  <style type="text/css">
   <![CDATA[
    .fil0 {fill:#34205F}
   ]]>
  </style>
 </defs>
 <g id="Layer_x0020_1">
  <metadata id="CorelCorpID_0Corel-Layer"/>
  <path class="fil0" d="M13337 17797c53,-53 92,-105 155,-129 51,58 61,57 126,94 34,19 10,-1 45,35 -8,86 -176,226 -326,0zm-12981 -4974c18,77 44,117 78,121 34,4 85,0 152,-12l651 -121c74,-14 121,-29 139,-44 25,-23 33,-68 22,-138l41 -7 88 467 -42 7c-15,-65 -38,-105 -71,-120 -20,-8 -68,-5 -144,9l-651 121c-78,14 -127,29 -149,42 -31,20 -40,68 -26,142l-41 7 -88 -466 41 -8zm1164 1197l67 -22c18,-6 34,-12 49,-20 44,-22 60,-74 46,-157l41 -11 103 367 -41 11c-11,-24 -21,-45 -32,-62 -27,-45 -74,-60 -141,-43l-69 18 -880 243 -10 -33 690 -944 0 -1 -615 170 -80 26c-47,16 -77,37 -90,65 -12,24 -12,61 1,111l-40 11 -103 -367 40 -12c26,72 59,109 99,110 24,2 48,0 72,-5l78 -19 720 -199 34 -45c24,-38 29,-79 17,-124l41 -11 74 264 -615 829 0 1 544 -151zm328 154l337 869 -268 119 -15 -39 39 -25c48,-35 77,-67 87,-99 12,-34 13,-78 1,-131 -8,-34 -16,-62 -24,-83l-25 -67 -787 301c-52,19 -88,37 -108,52 -31,25 -39,61 -25,110l15 42 -40 15 -171 -443 39 -15 15 32c24,51 54,75 90,74 24,0 64,-11 120,-32l788 -301 -29 -73c-9,-25 -21,-51 -35,-76 -27,-52 -55,-85 -82,-98 -32,-15 -74,-18 -127,-10l-58 9 -15 -39 278 -92zm-635 1351c24,44 46,71 66,83 28,15 63,14 105,-3l66 -31 610 -300 66 -34c42,-24 63,-50 64,-80 0,-17 -9,-51 -28,-103l38 -18 396 794 -219 121 -19 -37 51 -41c58,-52 61,-130 10,-233l-97 -193 -18 -35c-15,-29 -33,-40 -54,-34l-33 13 -18 9 -318 157 109 219c23,47 44,78 63,94 30,27 67,34 111,22 15,-4 33,-10 54,-19l18 37 -350 173 -18 -38 48 -35c34,-27 50,-60 47,-96 -1,-19 -14,-54 -39,-106l-109 -219 -347 171 -29 15c-30,15 -37,40 -23,75l19 45 64 128c15,31 30,59 45,83 18,30 38,55 62,75 28,25 59,43 93,52 29,9 63,14 100,16l57 3 19 38 -298 55 -401 -805 37 -18zm488 921c39,53 73,80 101,82 29,2 70,-14 123,-47l622 -392c49,-31 77,-61 84,-89 5,-23 -7,-63 -35,-118l35 -22 181 283 67 110c69,115 103,206 105,274 2,106 -43,189 -134,249 -34,21 -67,34 -99,41 -35,7 -72,7 -109,-2 -60,-13 -125,-55 -196,-125l-140 392c-17,47 -32,92 -42,136 -12,45 -7,89 17,135l-36 22 -145 -228 222 -604 -47 -73 -254 161c-56,36 -88,66 -97,91 -9,26 2,67 34,125l-36 23 -256 -401 35 -23zm637 -15l52 82c97,150 216,180 358,92 67,-42 102,-96 104,-164 2,-63 -17,-126 -58,-189l-26 -35c-21,-26 -49,-27 -85,-4l-23 15 -322 203zm1213 1096l51 -48c14,-13 26,-26 35,-38 32,-39 23,-93 -24,-162l32 -28 249 290 -32 27c-20,-17 -39,-32 -56,-43 -43,-30 -92,-23 -145,20l-55 46 -695 589 -23 -27 224 -1144 0 -1 -485 412 -62 57c-35,34 -54,66 -54,96 0,28 16,61 48,101l-32 27 -249 -290 32 -27c54,54 99,73 136,58 22,-9 43,-20 63,-35l63 -50 568 -482 12 -56c5,-43 -7,-83 -37,-119l32 -27 179 208 -205 1010 0 1 430 -365zm-414 805c29,16 74,13 136,-8 39,-14 83,-31 131,-52l878 -383 30 29 -383 995c-18,48 -28,82 -31,103 -4,30 10,62 43,95l-29 30 -310 -295 29 -31c53,52 91,63 116,35 18,-18 36,-50 53,-96l70 -185 -1 1 -294 -281 1 -1 -127 56 -82 40c-24,11 -42,23 -54,35 -30,29 -18,71 34,125l-29 31 -243 -232 29 -30 33 19zm512 -76l-1 1 253 240 0 0 172 -426 0 0 -424 185zm1033 39l743 569 -167 239 -34 -25 21 -42c23,-54 30,-97 23,-129 -8,-36 -31,-74 -69,-113 -24,-24 -45,-44 -63,-59l-57 -43 -515 663c-34,43 -56,77 -65,100 -13,37 -1,73 37,107l34 28 -25 34 -379 -291 26 -33 29 20c47,31 85,36 116,17 20,-13 49,-43 85,-90l516 -663 -62 -48c-22,-17 -45,-32 -70,-47 -51,-30 -91,-44 -122,-41 -34,3 -72,22 -114,57l-44 37 -34 -25 190 -222zm155 1489c68,41 116,50 142,28 27,-22 59,-61 96,-118l361 -552c41,-62 62,-105 64,-129 1,-34 -27,-71 -85,-111l23 -35 401 259 -23 35c-58,-34 -104,-44 -137,-31 -20,8 -51,45 -93,109l-361 552c-43,66 -67,111 -72,136 -7,36 22,75 85,116l-23 35 -401 -259 23 -35zm745 -143c44,-78 100,-143 165,-194 83,-67 183,-104 299,-112 107,-9 210,16 310,72 100,58 173,137 220,235 48,102 63,208 45,318 -14,80 -43,158 -86,233 -85,143 -198,238 -339,285 -147,49 -292,32 -435,-50 -143,-82 -230,-200 -262,-353 -30,-144 -2,-289 83,-434zm169 106c-44,75 -76,148 -96,221 -22,75 -22,149 0,221 24,75 70,133 138,172 71,41 146,51 226,32 75,-18 141,-57 201,-116 55,-55 103,-118 145,-191 71,-122 107,-230 108,-325 3,-132 -49,-228 -155,-290 -107,-62 -219,-58 -336,13 -79,47 -156,135 -231,263zm1781 486l23 -65c6,-18 11,-35 13,-51 10,-49 -22,-93 -97,-133l16 -38 356 142 -16 39c-26,-6 -49,-11 -70,-13 -52,-6 -92,22 -120,85l-27 66 -342 841 -33 -13 -333 -1118 -1 -1 -238 589 -29 78c-16,46 -17,83 -3,110 12,25 42,47 89,67l-15 39 -356 -143 15 -39c73,24 123,20 148,-11 16,-17 29,-37 40,-59l33 -74 279 -688 -15 -54c-16,-42 -45,-71 -88,-89l15 -39 256 103 288 989 0 1 212 -521zm8 898c34,1 72,-23 116,-71 28,-31 59,-67 92,-107l590 -750 40 11 137 1056c7,51 15,86 22,106 11,28 39,50 83,63l-11 40 -414 -114 11 -40c71,20 110,12 119,-24 7,-25 7,-61 1,-109l-27 -197 0 1 -393 -109 0 -1 -85 109 -53 73c-16,22 -26,41 -30,57 -13,40 16,71 89,94l-11 41 -325 -90 11 -40 38 1zm415 -307l0 0 337 94 0 -1 -51 -456 -1 0 -285 363zm743 623c51,6 88,5 111,-4 23,-9 42,-39 57,-90l14 -61 128 -680 9 -59c5,-45 -4,-78 -26,-98 -17,-17 -50,-31 -98,-42l8 -41 470 87 -8 42c-54,-6 -91,-5 -112,2 -26,9 -44,39 -56,91l-17 77 -130 693 -6 34c-4,30 -1,50 7,61 9,11 28,21 58,28l97 22 72 13c89,16 159,17 210,4 57,-14 113,-55 169,-123l28 -37 41 8 -140 280 -894 -166 8 -41zm2634 95l-44 43c-121,115 -262,170 -425,165 -160,-6 -294,-66 -401,-179 -98,-105 -144,-243 -138,-416 2,-89 19,-171 50,-247 42,-105 113,-188 213,-250 98,-61 205,-90 320,-87 80,4 160,20 238,50 27,11 47,17 61,17 20,0 37,-8 50,-22l27 -32 42 1 1 385 -42 5 -27 -81c-18,-48 -45,-92 -82,-130 -31,-32 -66,-58 -106,-76 -44,-21 -91,-32 -141,-34 -122,-2 -223,49 -302,153 -63,82 -97,193 -101,331 -6,180 31,316 112,407 35,40 75,70 121,91 45,20 98,31 156,33 113,5 219,-33 318,-112l64 -54 36 39zm76 -390c-7,-90 2,-174 26,-254 31,-101 92,-187 183,-259 83,-67 182,-105 297,-115 115,-8 220,16 315,71 97,56 170,135 218,236 34,75 55,155 61,241 12,165 -27,307 -117,425 -93,123 -223,191 -388,203 -164,12 -303,-35 -416,-144 -106,-102 -166,-237 -179,-404zm201 -8c6,86 21,165 46,236 24,75 66,136 126,183 62,49 133,70 212,64 81,-6 149,-40 204,-101 51,-56 84,-125 100,-208 14,-76 17,-156 11,-239 -11,-140 -43,-250 -96,-329 -73,-110 -170,-160 -293,-152 -124,9 -214,75 -270,200 -38,83 -51,198 -40,346zm1256 -732l10 40c-47,15 -79,28 -94,40 -23,18 -31,49 -25,93 4,31 9,62 17,94l96 409c11,52 25,103 42,152 56,171 165,237 328,198 117,-28 192,-84 226,-170 10,-24 16,-49 17,-76 2,-48 -4,-97 -15,-149l-118 -503c-8,-35 -18,-68 -31,-100 -17,-41 -43,-62 -76,-61 -23,0 -50,2 -82,8l-9 -41 374 -85 9 40c-31,9 -55,18 -74,28 -38,19 -52,53 -44,102 5,39 14,81 24,128l106 454c25,109 22,199 -7,269 -12,30 -29,58 -50,84 -29,36 -60,63 -95,84 -50,31 -109,54 -174,68 -60,14 -115,19 -168,15 -118,-7 -206,-61 -266,-160 -19,-29 -34,-63 -48,-101 -18,-49 -33,-100 -45,-152l-94 -402c-7,-30 -17,-63 -30,-98 -12,-36 -33,-57 -63,-64 -20,-4 -52,-3 -97,3l-10 -40 466 -107zm992 913c60,-26 94,-53 102,-80 9,-27 2,-70 -18,-129l-247 -690c-20,-55 -43,-88 -69,-101 -22,-10 -63,-7 -123,8l-14 -39 318 -112 123 -41c128,-41 225,-54 292,-40 105,21 176,83 215,185 12,37 19,72 18,104 -1,36 -9,71 -26,105 -26,56 -82,110 -167,163l354 222c42,28 84,51 125,72 41,21 86,26 135,13l14 39 -255 91 -544 -350 -82 29 101 282c23,62 46,100 68,115 23,14 67,12 130,-6l14 40 -450 159 -14 -39zm126 -620l92 -33c169,-60 225,-168 170,-325 -26,-75 -71,-121 -137,-138 -62,-16 -128,-11 -199,14l-41 17c-30,15 -37,43 -22,82l9 26 128 357zm497 -748l855 -384 134 259 -38 18 -28 -38c-37,-45 -72,-72 -104,-81 -35,-10 -79,-7 -132,7 -33,10 -61,19 -82,28l-65 30 347 763c22,50 42,85 59,104 27,28 64,34 112,18l42 -17 17 38 -436 196 -17 -38 31 -17c50,-27 73,-58 70,-93 -2,-24 -15,-63 -40,-118l-348 -763 -72 32c-24,11 -49,24 -74,39 -51,30 -82,59 -94,87 -13,33 -14,75 -3,127l13 57 -39 17 -108 -271zm1620 -145c-49,-76 -81,-154 -97,-236 -21,-104 -8,-208 38,-314 42,-99 111,-178 208,-240 98,-61 202,-90 312,-85 112,4 214,40 304,107 65,50 122,111 168,183 89,141 121,285 98,430 -24,153 -107,273 -246,361 -139,87 -284,110 -436,67 -142,-40 -258,-131 -349,-273zm173 -101c46,74 97,136 153,187 57,55 123,89 198,103 77,14 150,0 217,-43 69,-43 113,-105 132,-184 19,-74 15,-150 -10,-230 -24,-74 -58,-146 -104,-217 -76,-118 -156,-200 -240,-245 -116,-63 -226,-62 -331,2 -105,66 -152,167 -143,303 6,91 49,199 128,324zm1113 -113c22,-20 40,-39 54,-57 32,-36 18,-93 -42,-168l-454 -572c-39,-50 -72,-75 -98,-77 -27,-1 -65,15 -116,48l-26 -33 703 -550 164 189 -33 26 -50 -42c-64,-45 -141,-32 -232,39l-172 134 -30 25c-25,21 -33,41 -23,60l20 30 13 15 219 277 195 -153c54,-41 84,-77 91,-107 7,-39 -7,-83 -42,-133l33 -26 242 305 -33 26 -44 -40c-42,-34 -83,-40 -123,-20 -21,12 -47,29 -78,53l-195 153 209 263c42,54 75,83 100,87 31,5 72,-10 124,-46l26 33 -376 294 -26 -33zm778 -2165l30 29 -37 47c-31,44 -26,88 14,133l51 52 415 396c49,48 85,92 107,132 32,58 44,114 36,169 -9,61 -34,112 -76,154 -29,32 -62,52 -99,61 -44,11 -80,2 -109,-27 -42,-41 -44,-82 -5,-122 32,-33 73,-36 123,-9l26 13 18 6c6,2 12,0 18,-3l12 -8c23,-27 13,-61 -31,-101l-559 -533 -55 -47c-45,-38 -89,-42 -132,-11l-48 40 -30 -29 331 -342zm291 -333l33 25c-27,41 -43,71 -47,90 -6,28 7,58 40,88 22,21 47,41 73,61l335 257c42,33 86,63 130,90 152,98 279,80 380,-53 73,-95 95,-186 66,-273 -7,-26 -19,-49 -36,-70 -29,-38 -64,-73 -106,-105l-412 -316c-29,-22 -58,-41 -88,-57 -40,-22 -73,-22 -97,0 -18,14 -38,33 -59,58l-33 -26 234 -302 34 26c-19,26 -32,49 -40,68 -17,38 -7,74 31,107 29,26 62,54 101,83l371 285c89,69 144,140 167,213 10,30 14,63 14,96 1,45 -6,87 -20,124 -19,56 -49,111 -91,163 -37,48 -77,88 -120,117 -96,69 -199,83 -308,44 -33,-11 -67,-27 -101,-48 -46,-27 -90,-56 -133,-89l-328 -252c-26,-19 -54,-38 -86,-57 -32,-20 -62,-23 -90,-9 -18,9 -43,30 -73,63l-34 -25 293 -376zm1115 -155c37,8 68,15 91,18 24,3 50,3 79,0 122,-7 212,-54 269,-143 32,-47 43,-96 32,-145 -11,-50 -40,-91 -87,-123 -49,-31 -109,-35 -182,-11 -32,11 -60,21 -84,32l-134 61c-38,17 -72,32 -104,44 -85,33 -160,39 -225,20 -30,-8 -58,-21 -84,-38 -26,-16 -49,-37 -70,-62 -89,-109 -95,-224 -19,-343 23,-37 51,-67 81,-90l69 -51c13,-9 23,-19 29,-30l7 -15c2,-5 3,-11 2,-18l-4 -16c-3,-9 -9,-21 -17,-33l23 -35 327 169 -23 35 -58 -15c-68,-16 -132,-17 -193,-2 -68,16 -121,52 -158,105 -25,37 -32,78 -23,122 8,43 31,76 70,101 47,32 97,41 152,26 30,-7 81,-26 152,-58l149 -65c116,-51 211,-66 283,-44 30,9 58,22 86,39 84,56 131,130 139,222 8,86 -16,171 -71,255 -30,45 -62,80 -95,103l-70 50c-8,7 -15,14 -20,22 -5,8 -7,16 -7,25l2 12 13 20 10 13 -23 35 -337 -157 23 -35zm-249 -1026l422 -831 268 117 -19 37 -45 -12c-57,-12 -101,-11 -132,2 -34,15 -66,44 -98,88 -20,29 -35,53 -46,73l-32 64 753 376c49,26 86,40 112,44 38,6 71,-12 98,-55l22 -39 37 18 -215 425 -37 -19 13 -32c22,-52 21,-91 -4,-117 -17,-17 -52,-39 -106,-66l-754 -377 -35 70c-12,24 -23,50 -33,77 -20,55 -26,97 -18,127 10,33 37,66 78,100l46 36 -19 38 -256 -144zm1446 -434c29,-73 31,-121 5,-144 -26,-23 -70,-48 -132,-75l-605 -268c-69,-31 -115,-45 -139,-42 -34,3 -67,37 -97,100l-38 -17 195 -434 38 18c-25,61 -28,108 -10,138 11,19 53,43 123,75l606 268c72,32 120,48 146,49 37,1 72,-33 102,-102l39 17 -195 434 -38 -17zm417 -1532l29 54c76,148 89,298 38,452 -51,151 -147,261 -287,330 -128,64 -275,69 -440,14 -85,-28 -160,-67 -225,-118 -88,-70 -149,-161 -180,-274 -31,-111 -29,-220 7,-329 26,-76 65,-147 116,-212 18,-23 29,-41 34,-54 5,-19 2,-37 -8,-54l-23 -35 13 -40 372 109 -7 42 -86 2c-52,4 -102,17 -149,41 -39,20 -74,47 -104,79 -32,37 -56,78 -72,125 -37,116 -16,226 62,332 61,83 158,146 290,189 172,58 314,61 425,9 48,-21 89,-50 122,-88 33,-38 59,-85 77,-140 36,-106 30,-218 -18,-335l-34 -75 48 -24zm185 -57c10,-49 11,-84 2,-105 -11,-30 -38,-51 -83,-65l-70 -18 -663 -154 -72 -15c-48,-8 -81,-2 -101,21 -11,13 -26,45 -44,97l-41 -10 203 -863 247 45 -10 41 -65 -1c-78,4 -131,62 -157,173l-49 211 -8 38c-7,32 0,52 19,61l35 10 19 5 346 80 56 -238c12,-51 16,-88 12,-113 -6,-39 -30,-68 -71,-86 -15,-7 -33,-13 -54,-19l9 -41 381 88 -10 41 -60 -4c-43,0 -76,15 -98,45 -11,15 -23,50 -37,106l-56 238 377 87 32 8c32,7 53,-8 65,-43l14 -48 33 -139c8,-34 14,-65 18,-93 6,-34 6,-66 1,-96 -5,-38 -18,-71 -38,-100 -17,-25 -40,-50 -67,-75l-42 -39 9 -40 265 145 -206 875 -41 -10zm-20477 -2791l108 -3 12 430 -108 3 -12 -430zm374 -1690l39 47c104,130 146,275 127,436 -20,157 -92,284 -216,380 -113,87 -256,120 -429,99 -89,-11 -170,-35 -244,-72 -100,-51 -177,-129 -231,-233 -52,-103 -71,-211 -58,-324 11,-80 35,-157 72,-231 13,-26 21,-46 22,-59 2,-20 -4,-37 -18,-52l-29 -30 5 -41 385 34 2 42 -83 20c-51,13 -97,36 -139,69 -34,27 -63,60 -86,98 -24,41 -40,87 -46,136 -13,120 29,225 126,313 77,70 185,113 322,129 181,23 320,-1 419,-74 43,-30 77,-67 102,-111 25,-43 41,-94 48,-151 14,-112 -14,-220 -84,-325l-48 -68 42 -32zm-352 -193c-89,-20 -168,-54 -236,-101 -88,-59 -153,-143 -195,-250 -40,-100 -47,-205 -21,-317 27,-111 80,-204 162,-277 83,-75 181,-121 292,-136 82,-10 165,-5 250,14 162,39 287,118 373,238 90,126 117,269 79,429 -37,159 -125,276 -262,351 -131,70 -278,86 -442,49zm52 -193c85,20 165,29 240,27 80,-1 151,-22 214,-65 65,-44 107,-104 125,-181 18,-79 6,-154 -36,-224 -38,-65 -95,-117 -170,-157 -69,-36 -144,-63 -227,-82 -138,-31 -252,-34 -344,-7 -127,36 -205,113 -234,232 -29,119 8,225 111,316 69,60 176,107 321,141zm-132 -1678l39 16c-15,46 -21,79 -20,98 2,30 23,54 62,74 28,14 57,27 88,39l393 155c50,20 100,37 150,52 174,52 290,0 351,-156 43,-111 39,-204 -13,-281 -14,-22 -32,-41 -54,-57 -38,-28 -82,-52 -131,-72l-484 -191c-33,-13 -67,-23 -100,-30 -44,-10 -76,-1 -94,26 -13,19 -26,43 -40,72l-39 -15 142 -355 39 16c-10,30 -17,56 -19,76 -6,42 14,73 59,94 35,18 75,35 120,53l436 172c105,42 178,95 219,159 18,27 32,56 41,89 13,43 18,84 15,124 -2,59 -17,120 -42,182 -22,56 -50,105 -83,145 -73,92 -168,134 -284,126 -35,-1 -72,-7 -111,-18 -51,-13 -102,-29 -152,-49l-385 -152c-30,-11 -63,-22 -99,-32 -36,-10 -66,-5 -89,16 -15,14 -32,41 -53,81l-39 -15 177 -442zm1286 -272c25,-60 32,-103 19,-128 -13,-26 -47,-53 -103,-82l-657 -332c-51,-26 -91,-34 -119,-25 -23,7 -51,37 -84,89l-38 -18 154 -299 61 -114c64,-117 126,-193 184,-229 91,-56 186,-60 284,-12 35,19 64,40 86,64 24,26 42,57 53,94 20,58 17,135 -8,231l411 -80c49,-9 96,-20 140,-33 44,-12 80,-40 107,-83l38 19 -123 240 -637 118 -39 77 268 135c60,30 102,42 129,37 27,-5 57,-36 91,-93l37 19 -217 424 -37 -19zm-337 -537l44 -86c81,-159 46,-276 -103,-352 -70,-37 -135,-39 -194,-6 -56,30 -101,78 -135,145l-17 41c-12,31 2,56 40,74l25 12 340 172zm1144 -898c43,-66 55,-113 34,-140 -21,-28 -59,-61 -115,-100l-540 -382c-61,-43 -103,-66 -127,-68 -35,-3 -73,23 -115,79l-34 -24 277 -387 34 25c-36,55 -49,100 -37,134 7,20 43,52 106,97l540 382c64,45 109,70 134,76 36,9 76,-18 120,-79l34 24 -277 387 -34 -24zm248 -1684l-55 -43c-15,-11 -30,-21 -44,-29 -43,-25 -95,-9 -158,48l-31 -27 251 -288 32 27c-15,23 -26,43 -35,61 -23,48 -9,94 42,141l53 47 690 595 -23 26 -1173 -50 0 0 482 416 65 51c39,31 74,44 104,40 28,-4 59,-25 93,-63l32 28 -252 288 -32 -28c46,-61 59,-108 38,-142 -12,-21 -26,-39 -44,-57l-59 -54 -565 -486 -56 -4c-45,1 -83,19 -114,54l-32 -27 181 -208 1036 52 1 0 -427 -368zm92 -468l678 -643 213 200 -30 29 -38 -27c-51,-30 -92,-44 -126,-42 -36,3 -77,19 -122,51 -28,20 -51,38 -68,53l-52 49 583 606c38,40 68,66 90,78 35,19 72,12 112,-20l33 -29 30 30 -346 328 -29 -30 23 -26c38,-41 50,-78 35,-111 -10,-22 -35,-54 -77,-97l-583 -606 -57 54c-19,18 -38,39 -57,61 -37,45 -57,83 -59,113 -2,35 12,75 39,121l31 49 -30 29 -193 -220zm1505 109c38,-33 61,-60 68,-82 10,-29 2,-63 -24,-101l-44 -58 -421 -531 -47 -57c-32,-36 -62,-52 -91,-46 -17,3 -49,19 -96,48l-26 -33 701 -548 165 189 -33 25 -51 -41c-63,-46 -140,-33 -231,38l-171 134 -30 24c-26,21 -33,41 -23,60l20 30 12 15 220 277 193 -151c42,-32 69,-59 81,-81 20,-34 19,-71 -2,-111 -7,-14 -17,-30 -30,-48l33 -26 242 305 -33 25 -44 -40c-34,-27 -70,-36 -105,-25 -18,5 -50,24 -96,59l-193 151 239 302 20 26c21,25 47,27 79,7l40 -29 114 -88c27,-21 51,-41 72,-61 26,-23 46,-48 61,-75 20,-32 31,-66 33,-101 2,-30 1,-64 -5,-101l-9 -56 33 -26 116 278 -711 555 -26 -32zm807 -626c54,-36 83,-68 86,-96 3,-29 -11,-70 -42,-124l-369 -634c-29,-50 -57,-79 -86,-86 -23,-6 -63,3 -119,30l-21 -36 292 -168 113 -63c119,-63 212,-93 281,-92 106,2 188,50 244,144 20,34 32,67 37,99 6,35 4,71 -6,108 -16,59 -60,122 -134,190l388 155c47,19 92,35 136,47 44,14 89,10 136,-11l21 36 -235 135 -599 -246 -75 44 151 259c34,57 63,90 88,100 25,10 68,1 127,-28l21 36 -414 238 -21 -37zm11 -632l84 -48c155,-90 191,-207 107,-351 -38,-69 -91,-106 -159,-111 -64,-5 -128,12 -193,50l-37 24c-27,20 -29,48 -7,84l14 24 191 328zm1420 -1058l-32 -62c-9,-17 -18,-32 -27,-45 -29,-40 -83,-47 -164,-21l-17 -38 350 -158 17 39c-23,14 -42,28 -58,41 -40,33 -47,81 -21,145l29 65 376 826 -32 15 -1044 -533 -1 0 263 578 38 74c23,44 49,70 78,79 26,8 63,2 110,-18l18 38 -350 157 -17 -38c67,-37 98,-75 93,-114 -1,-23 -7,-47 -15,-70l-31 -74 -308 -676 -50 -27c-41,-17 -83,-16 -126,2l-17 -38 251 -113 919 478 1 -1 -233 -511zm642 627c28,-16 49,-56 61,-120 8,-41 16,-87 22,-139l112 -945 40 -11 670 831c33,40 57,66 74,79 24,19 59,23 104,11l12 40 -414 116 -11 -40c71,-19 101,-46 89,-82 -7,-24 -26,-56 -57,-93l-125 -154 0 0 -393 110 0 0 -16 136 -7 90c-2,27 -1,49 4,65 10,40 52,51 126,34l11 40 -324 91 -12 -40 34 -19zm193 -476l0 0 337 -94 -1 -1 -282 -362 0 0 -54 457zm747 -909l923 -167 67 284 -42 7 -17 -43c-25,-53 -52,-87 -81,-103 -32,-18 -75,-27 -130,-25 -35,1 -64,4 -87,7l-70 13 150 824c10,54 20,92 32,115 19,34 53,49 104,44l45 -6 7 41 -470 85 -8 -41 34 -9c55,-14 85,-38 91,-73 4,-24 1,-65 -10,-124l-151 -824 -77 14c-27,4 -54,11 -82,19 -57,18 -94,38 -112,63 -21,28 -32,68 -34,122l-2 58 -41 7 -39 -288zm1191 902c79,-9 122,-30 130,-63 8,-34 9,-84 4,-152l-50 -656c-6,-75 -15,-122 -29,-141 -20,-28 -65,-41 -135,-37l-3 -42 477 -36 3 42c-67,8 -110,27 -128,57 -11,19 -13,67 -7,143l50 657c6,78 15,128 27,151 16,33 63,47 138,41l3 42 -477 36 -3 -42zm523 -576c-3,-90 10,-174 38,-252 36,-100 101,-183 195,-251 87,-63 188,-96 303,-100 115,-2 219,26 311,86 94,61 163,143 206,246 31,76 48,158 50,243 3,166 -42,306 -137,420 -100,118 -233,179 -398,184 -164,4 -301,-50 -409,-164 -101,-107 -154,-244 -159,-412zm201 2c2,86 13,165 35,237 20,76 59,139 117,189 59,52 129,77 208,74 82,-2 151,-32 209,-90 54,-54 90,-122 110,-204 17,-75 25,-154 22,-238 -4,-141 -31,-252 -80,-333 -67,-113 -162,-169 -285,-166 -124,3 -217,65 -279,187 -42,81 -61,196 -57,344zm2003 -225l6 -70c1,-19 1,-36 0,-52 -4,-49 -46,-84 -129,-103l6 -42 381 47 -6 42c-27,0 -50,2 -70,5 -52,7 -84,45 -95,112l-9 71 -113 900 -35 -4 -612 -996 0 0 -79 630 -7 82c-3,49 5,85 26,108 18,20 52,34 103,42l-5 41 -381 -47 5 -41c77,3 123,-13 140,-49 11,-21 19,-43 23,-68l13 -79 92 -736 -29 -49c-25,-36 -62,-57 -108,-63l5 -42 274 34 534 883 1 0 69 -556zm213 872c34,-1 71,-26 113,-76 27,-32 55,-69 86,-111l557 -775 41 9 183 1049c10,51 18,85 27,105 12,28 40,48 86,59l-10 41 -418 -96 9 -41c72,18 111,8 118,-29 5,-25 4,-61 -4,-109l-36 -195 0 1 -397 -92 0 -1 -80 113 -50 75c-16,22 -25,42 -28,59 -11,39 20,69 93,90l-9 40 -328 -75 9 -41 38 0zm401 -325l0 0 340 79 1 -1 -72 -453 0 0 -269 375zm733 618c49,12 85,16 110,10 24,-5 47,-32 69,-81l22 -58 223 -656 17 -56c11,-45 7,-79 -12,-102 -15,-19 -46,-37 -91,-54l13 -40 453 151 -13 40c-53,-13 -90,-17 -112,-13 -26,5 -49,32 -68,82l-27 74 -226 669 -11 33c-8,29 -8,49 -2,61 7,12 25,24 54,36l93 35 69 23c86,27 155,38 208,33 58,-6 120,-39 184,-99l33 -32 40 13 -178 258 -862 -288 14 -39zm965 336c46,21 80,31 103,27 31,-3 59,-25 83,-64l34 -63 309 -603 32 -66c20,-44 21,-78 4,-102 -10,-14 -38,-36 -84,-66l19 -38 795 403 -103 227 -38 -19 17 -63c15,-76 -29,-140 -132,-192l-194 -98 -35 -17c-30,-14 -51,-13 -64,4l-19 31 -9 17 -161 314 220 111c46,25 82,37 107,39 40,4 74,-12 101,-48 10,-12 21,-28 32,-47l38 19 -178 345 -37 -19 18 -56c10,-42 4,-78 -21,-106 -12,-14 -43,-34 -94,-61l-219 -111 -176 343 -15 29c-14,29 -5,53 27,73l43 25 128 65c31,16 60,29 86,40 32,13 63,21 94,23 38,4 74,0 107,-13 28,-10 58,-26 89,-46l48 -32 38 19 -206 221 -806 -408 19 -37zm2339 74c73,53 141,107 202,161 53,49 95,99 127,152 34,55 56,115 67,178 10,66 8,133 -7,199 -18,75 -52,147 -101,216 -48,66 -102,118 -162,156 -106,67 -216,93 -332,80 -98,-12 -189,-43 -273,-94 -52,-31 -114,-72 -185,-123l-297 -210 25 -34c29,17 56,30 81,38 26,11 53,4 78,-19 14,-12 28,-28 43,-47l38 -51 379 -528c45,-62 69,-106 73,-130 5,-30 -21,-70 -78,-120l24 -34 298 210zm-569 731l-43 60c-18,24 -25,42 -21,53 4,12 18,26 42,42l34 25c125,89 246,123 364,101 122,-22 226,-94 312,-215 60,-83 96,-170 109,-259 13,-99 -6,-190 -56,-273 -18,-31 -42,-62 -72,-91 -26,-26 -53,-49 -82,-70 -24,-16 -44,-28 -60,-35 -22,-12 -41,-7 -58,12l-28 35 -31 43 -410 572zm615 656c37,33 68,52 91,55 31,6 63,-7 97,-38l52 -51 470 -489 50 -54c32,-36 43,-68 33,-96 -6,-17 -26,-46 -61,-88l29 -30 645 612 -165 189 -30 -29 34 -56c37,-68 13,-142 -71,-222l-157 -149 -29 -26c-24,-22 -45,-27 -62,-14l-27 24 -14 14 -245 255 178 169c38,36 68,59 92,67 37,15 74,10 111,-16 12,-9 27,-22 44,-37l30 29 -270 280 -30 -28 33 -49c23,-38 26,-74 11,-107 -7,-17 -31,-46 -72,-86l-178 -169 -268 278 -22 23c-23,24 -21,50 4,79l34 36 104 99c25,24 48,45 71,62 26,22 54,39 83,50 35,14 70,20 106,18 30,-2 64,-9 99,-19l55 -17 31 29 -261 153 -654 -621 29 -30zm2338 884l-33 25 -43 -43c-39,-37 -84,-38 -134,-4l-59 42 -453 354c-54,41 -103,70 -146,86 -62,24 -120,28 -173,13 -60,-17 -107,-50 -143,-96 -28,-33 -44,-69 -47,-106 -5,-45 9,-80 41,-104 47,-36 88,-32 124,12 28,36 25,77 -9,123l-16 23 -9 17c-3,6 -2,12 0,18l7 13c23,27 58,21 104,-16l609 -476 56 -47c44,-40 53,-83 29,-129l-34 -53 33 -26 296 374zm377 515l-36 22c-29,-39 -52,-63 -68,-74 -25,-15 -58,-13 -97,8 -28,14 -56,29 -83,47l-357 227c-45,28 -88,58 -130,91 -143,109 -169,234 -77,373 65,100 144,151 236,154 27,2 53,-1 79,-10 45,-14 91,-35 135,-64l439 -278c30,-19 58,-40 84,-63 33,-30 44,-61 32,-91 -7,-22 -19,-46 -35,-74l36 -23 206 322 -35 22c-19,-26 -36,-46 -51,-60 -31,-29 -68,-31 -112,-7 -35,18 -72,40 -113,66l-396 251c-95,59 -181,87 -257,84 -33,-2 -65,-8 -96,-20 -44,-14 -81,-34 -111,-60 -47,-37 -88,-84 -124,-140 -33,-51 -57,-102 -70,-152 -33,-113 -12,-214 62,-303 22,-27 49,-53 80,-78 41,-34 84,-65 129,-94l350 -222c26,-17 54,-38 83,-61 30,-23 43,-50 39,-81 -2,-20 -14,-50 -35,-90l35 -22 258 400zm-225 1122c-27,28 -47,51 -62,70 -14,18 -27,41 -39,67 -56,109 -59,210 -11,303 25,51 62,85 111,101 48,15 98,11 150,-14 52,-26 85,-76 101,-151 7,-32 12,-62 15,-87l14 -146c3,-41 8,-79 14,-112 13,-89 45,-157 95,-203 22,-22 47,-40 75,-53 27,-14 57,-24 89,-29 140,-22 243,30 309,155 20,39 32,77 37,115l10 85c1,16 5,29 11,40l10 14c4,4 9,7 15,10l16 5c10,2 22,2 37,2l19 37 -311 196 -19 -37 42 -42c48,-50 81,-105 99,-166 19,-66 15,-129 -13,-188 -19,-39 -51,-66 -95,-81 -41,-14 -82,-11 -123,10 -51,24 -84,63 -98,117 -10,30 -18,83 -26,160l-18 161c-14,125 -49,214 -103,265 -23,21 -49,39 -78,54 -91,44 -178,47 -263,9 -79,-37 -141,-100 -186,-190 -25,-48 -39,-92 -43,-132l-8 -86c-2,-10 -5,-19 -9,-28 -4,-8 -11,-14 -18,-19l-12 -4 -24 1 -16 2 -19 -38 306 -210 19 37zm1126 467l341 867 -267 120 -16 -39 40 -25c47,-35 76,-68 86,-99 12,-35 12,-78 0,-131 -8,-34 -16,-62 -24,-83l-26 -67 -785 305c-52,20 -88,38 -108,53 -30,25 -38,62 -24,110l15 42 -39 16 -174 -443 39 -15 15 32c24,50 54,75 90,74 24,-1 64,-12 120,-34l786 -305 -29 -73c-9,-25 -21,-50 -35,-75 -28,-52 -55,-85 -83,-98 -32,-15 -74,-18 -127,-9l-58 9 -15 -39 278 -93zm-657 1332c24,75 53,113 88,114 35,1 85,-8 150,-26l638 -179c73,-20 117,-39 134,-56 23,-25 27,-71 9,-139l41 -11 130 457 -41 11c-21,-63 -48,-101 -82,-113 -20,-7 -68,1 -142,22l-638 178c-76,22 -124,40 -144,56 -30,23 -34,71 -13,143l-41 11 -130 -457 41 -11zm541 1472l-54 -31c-142,-86 -232,-208 -269,-366 -35,-155 -12,-298 71,-430 77,-121 199,-201 369,-240 87,-20 172,-25 254,-15 112,13 211,60 297,140 85,78 140,173 167,284 17,79 22,159 12,242 -3,29 -3,49 0,63 5,19 17,33 34,42l39 18 9 41 -374 99 -16 -39 72 -46c42,-30 78,-68 106,-113 23,-37 39,-78 47,-121 8,-48 7,-96 -4,-144 -29,-117 -105,-201 -227,-251 -96,-39 -212,-43 -347,-11 -178,40 -300,110 -368,212 -30,43 -49,89 -57,139 -8,49 -6,102 7,159 25,109 89,201 192,276l68 47 -28 45zm-160 121c8,50 19,83 35,100 21,24 54,34 100,32l72 -7 676 -84 73 -11c48,-8 77,-26 87,-54 6,-16 9,-51 8,-106l42 -5 110 880 -248 42 -5 -41 62 -22c72,-30 101,-102 87,-216l-27 -215 -6 -38c-5,-32 -18,-49 -39,-50l-36 1 -20 3 -352 43 30 243c6,52 15,89 28,110 19,35 52,54 97,57 15,1 35,1 57,-1l5 42 -387 47 -6 -41 58 -17c41,-15 66,-40 76,-76 5,-18 4,-55 -1,-112l-31 -243 -384 48 -33 4c-32,5 -48,26 -46,63l3 50 18 141c4,35 9,66 15,93 7,34 18,64 33,91 18,33 42,60 71,80 24,18 54,34 89,48l53 22 5 41 -299 -45 -112 -892 42 -5zm512 2036l-108 -3 13 -430 107 3 -12 430zm-9918 -7312c-18,29 -19,22 -39,35 -7,-13 -30,-56 -17,-78 21,-35 96,-21 56,43zm-299 14077c39,44 72,116 -13,138 -35,-30 -35,-45 -51,-87 21,-33 21,-41 64,-51zm-356 -9463c-44,-75 -8,-86 -19,-146 -32,-170 -47,-119 -23,-333 9,-78 13,-125 44,-142 10,26 34,254 36,287 13,211 -41,80 7,277 -18,18 -32,41 -45,57zm-704 -439c0,-57 37,-162 73,-185 33,-22 170,-25 226,-25 110,0 96,21 158,74 0,117 -15,90 -22,154 -4,30 5,63 0,113 -14,150 51,128 -13,216 -47,-136 54,-368 -84,-414 -236,-80 -176,246 -176,314 0,101 -22,145 -21,221 2,65 21,150 43,195 38,20 95,38 153,27 70,-14 49,-51 122,-52 34,44 54,158 -91,164 -227,10 -349,26 -349,-164l4 -339c-1,-99 -23,-174 -23,-299zm2056 299c45,-87 125,16 165,33 32,14 39,6 68,24 65,41 21,50 133,43 121,-8 108,24 112,57 -95,87 -343,-42 -378,-73 -77,-69 -74,-47 -100,-84zm116 -188c23,-20 36,-34 61,-53 29,6 53,17 76,28 -32,83 -106,115 -225,122 -25,-26 -56,-54 -70,-88l-3 -35c17,-9 -20,-9 46,-15 67,-6 87,30 115,41zm-692 -1782c-30,-14 -32,-25 -45,-57 -18,-43 -11,-26 -30,-57 24,-24 40,-24 76,-27 20,57 44,100 -1,141zm1993 355c0,103 -1,193 -73,238 -55,35 -185,59 -257,24 -93,-45 -113,-127 -127,-146 -35,-50 -36,-48 -30,-130 15,-196 44,-55 60,-244 4,-47 1,-60 25,-104 48,-85 34,-140 61,-212 15,-42 30,-55 42,-112 34,-164 49,-155 65,-239 22,-110 87,-71 154,-51 -3,51 -33,59 -31,100 1,22 24,66 29,98 12,89 -2,165 20,253 12,45 22,60 31,113 24,133 31,276 31,412zm-5994 8706c-177,-42 -150,-252 1,-259 86,-4 228,145 -1,259zm79 -939c-100,0 -187,-75 -190,-154 -4,-114 40,-195 150,-201 67,-3 111,0 142,42 48,64 115,172 51,253 -45,57 -92,60 -153,60zm6419 705c135,-55 314,175 160,290 -114,85 -411,66 -369,-106 25,-104 129,-151 209,-184zm316 152c64,-52 145,-46 204,-1 -17,20 -50,48 -72,61 -34,20 -60,19 -99,17 -17,-29 -22,-39 -33,-77zm-1369 2123c127,19 45,-19 225,25 7,251 219,-63 270,145 -58,81 -27,77 -109,97 -96,23 -97,2 -180,44 -62,31 -103,34 -181,42 -65,8 -212,64 -367,80 -139,13 -340,113 -580,35 7,-62 40,-116 39,-167 -1,-49 -19,-135 -47,-173 -73,-97 -251,-126 -272,-158 -51,-77 50,-258 104,-316 32,-35 77,-179 221,-209 63,-13 202,4 271,11 191,20 325,34 418,158l148 283c21,61 3,50 40,103zm-1523 333c-55,37 -43,48 -50,124 -36,424 360,333 285,557 -30,88 -142,120 -39,236 62,-17 131,-71 184,-51 88,33 41,102 93,169 32,42 104,80 168,94 96,20 134,39 172,105 -66,41 -320,66 -412,43 -127,-32 -180,-140 -341,-140 -41,60 -28,18 -110,135 -37,52 -102,83 -197,62 -148,-32 -161,-200 -293,-215 -279,-30 -248,55 -430,76 -117,13 -273,129 -380,39 56,-101 124,-93 180,-124 247,-138 146,8 327,-182 32,-34 49,-86 81,-115 81,-76 75,-23 152,-162 80,-147 23,-66 59,-152 59,-137 61,-135 22,-321 -12,-56 -65,-92 -60,-237 3,-70 66,-247 105,-299 50,-64 20,-100 32,-178 10,-66 38,-98 65,-140l81 -124c40,-11 82,-15 129,5 127,53 241,41 292,181 50,137 -68,241 75,366 81,70 189,35 196,268 7,278 -61,281 -190,269 -77,-6 -139,-78 -149,-158 -9,-80 18,-83 -47,-131zm2640 -654c25,-12 73,-23 115,-23 128,0 64,90 13,111 -70,28 -140,-2 -128,-88zm-593 74c-92,220 -582,-118 -157,-96 83,4 131,31 157,96zm-4814 -52c-4,-38 45,-48 92,-44 71,6 57,25 95,41 127,55 194,-21 211,-26 53,-15 212,-26 246,-11 88,40 78,214 -153,281 -59,17 -134,111 -302,-12 -24,-18 -186,-200 -189,-229zm1021 -300c41,-42 182,-80 250,-104 67,-23 203,-135 241,-129 12,2 120,95 153,101 92,15 198,-61 298,-20 9,4 34,16 43,23 140,110 63,183 83,443 10,137 -148,187 -80,586 6,40 1,73 6,112 20,164 -11,136 -218,136 -79,0 -158,0 -237,-4 -108,-5 -58,-22 -189,-44 -76,-13 -124,-19 -195,-40l-468 -121c-110,-17 -40,-37 -172,-61 -45,-8 -56,-7 -93,-31l-15 -89c76,-34 156,-44 218,-76 109,-57 281,-355 386,-352 36,1 93,18 135,27 66,-40 88,-55 98,-153 -47,-29 -30,-48 -183,-147 -34,-23 -55,-52 -61,-57zm4179 33c-39,-58 -11,-122 11,-172 106,7 109,66 60,137 -21,30 -22,41 -71,35zm-2397 -312c85,-39 180,-229 388,-155 102,36 -12,53 214,63 107,5 139,-3 245,16 15,31 18,41 25,87 -44,26 -44,42 -108,44 -88,4 -287,-74 -412,24 -39,31 -55,29 -92,63 -71,64 -237,118 -260,-142zm1228 -133c112,-40 59,-27 138,24 92,58 260,89 292,100 56,19 36,32 145,52 284,52 424,-29 437,119 10,116 -92,149 -192,164 -57,8 -111,28 -170,32 -117,7 -420,-100 -460,-127 -132,-90 -144,-110 -174,-219 -26,-91 -40,-33 -16,-145zm1405 117c-34,-14 -10,2 -42,-21l-32 -33c-27,-37 -24,-68 -16,-97 17,-62 41,-133 74,-175 193,135 46,273 16,326zm-5504 -126c54,-48 -6,-51 126,-51 87,114 427,215 279,442 -109,6 -69,-18 -244,-166 -85,-71 -126,-127 -161,-225zm6259 45l-45 -35c56,-48 44,-87 100,-94 48,-5 77,54 -55,129zm-5272 120c0,-179 60,-65 131,-186 36,-61 67,-136 169,-142 49,-4 110,3 159,-2 65,-6 54,-29 102,-55 86,-47 95,-112 211,-98l249 62c91,-2 217,-79 313,107 36,68 48,59 54,102 15,99 13,214 -31,267 -70,-74 -75,-140 -113,-188 -60,-75 -129,-20 -236,-90 -85,66 -57,4 -95,72 -18,32 -26,62 -45,95l-82 1c-73,-86 -114,-286 -250,-184 -87,66 -49,340 -536,239zm4900 -462c43,-9 58,-3 102,22 11,95 0,180 -84,195 -57,-48 -40,-151 -18,-217zm-5941 523c-37,116 -138,-28 -287,-154 -17,-15 -96,-61 -143,-131 -60,-89 -111,-117 -86,-191 38,-115 212,-30 274,160 28,85 25,68 69,127 42,56 3,38 61,81l112 108zm405 -578c37,-25 88,-46 134,-7l87 109c12,13 192,146 206,189 16,117 -22,142 -107,168l-170 -208c-76,-152 -134,-151 -150,-251zm-466 -100c115,25 105,94 198,154l95 76c38,33 33,72 3,118l-61 0c-91,-104 -59,-13 -214,-175 -49,-50 -84,-81 -21,-173zm3480 238l172 -87c55,-26 34,-29 79,-52l232 -109c22,-13 16,-21 45,-32 107,-45 143,58 110,120 -16,29 -201,234 -269,268 -84,41 -133,25 -218,9 -93,-16 -170,-14 -151,-117zm-1930 -135c-24,-57 -16,-50 31,-95 51,-48 28,-46 119,-38l-54 89c-23,33 -63,28 -96,44zm1820 -14c-41,-29 -42,-42 -34,-112 11,-93 14,-54 48,-106 25,-39 11,-54 52,-104 78,-97 72,-79 149,-66 34,113 10,97 -30,159l-97 149c-22,32 -57,64 -88,80zm-5328 -466c11,-73 6,-73 81,-73 18,19 9,16 27,33l312 302c65,55 20,26 55,63l67 50c49,36 42,33 83,75l117 105c83,85 246,156 352,197 104,41 325,146 402,223 -81,130 -306,-18 -440,-95l-158 -76c-36,-17 -23,-22 -52,-41 -33,-21 -58,-19 -90,-40l-473 -351c-27,-26 -12,-23 -32,-45 -28,-29 -9,5 -42,-36l-145 -184c-21,-39 -27,-76 -64,-107zm-339 13c14,-25 40,-68 54,-91 88,1 226,125 196,208 -11,31 -22,43 -66,44 -79,0 -156,-135 -184,-161zm4055 -153c99,-8 229,143 316,229 25,24 43,37 62,68 67,109 144,131 -25,230 -56,-40 -140,-118 -173,-176 -102,-181 -282,-236 -180,-351zm1180 -139l94 2c10,25 15,46 28,78 52,132 51,-23 59,277 1,48 9,161 22,204 47,152 44,70 44,278 0,39 -63,152 -118,181 -62,32 -69,27 -131,27 -30,-44 -85,-81 -116,-130 46,-182 68,28 153,-419 14,-78 1,-196 -7,-258 -14,-117 -53,-100 -28,-240zm707 205l-17 -50c75,-67 54,-157 178,-176 43,77 40,93 -75,188 -26,22 -50,25 -86,38zm4286 -222c99,154 -85,372 -245,325 -22,-45 -18,-90 10,-123l105 -109c19,-33 29,-100 130,-93zm-4548 218c-47,-3 -58,-12 -91,-39 4,-67 48,-96 55,-183 8,-87 22,-130 89,-154 121,95 3,286 -53,376zm4332 -410c60,136 -24,159 -44,199l-163 268c-67,79 -78,132 -176,241 -58,65 -35,13 -81,77 -43,60 -143,126 -223,209l-217 214c-91,81 -229,-3 -68,-159 50,-49 87,-86 148,-140 29,-26 48,-45 74,-69 30,-27 116,-79 235,-196 158,-155 289,-408 413,-592 21,-31 55,-46 102,-52zm-5171 -38l71 0c49,123 29,138 53,196 12,29 19,21 31,60 18,59 -4,75 29,138 93,181 19,293 -12,395 -31,101 -52,172 -98,254 -70,10 -98,7 -119,-56 -37,-115 -41,-194 28,-283 75,-99 66,-347 46,-452 -16,-82 -22,-75 -55,-130 -12,-18 -22,-47 -21,-63 3,-51 43,-58 47,-59zm-5303 270c192,113 197,71 221,195 14,79 19,68 73,162 38,68 84,72 126,123l130 105c50,34 4,33 72,61 84,35 187,113 221,131l1041 568c67,25 233,113 362,123 167,14 284,-16 378,117 -56,168 -112,80 -146,140 -20,73 -8,101 42,135 54,37 87,27 139,32 126,10 194,86 137,199 -37,14 -91,26 -142,14 -64,-16 -39,-39 -106,-64 -120,-44 -40,-12 -114,-57l-388 -200c-34,-24 -33,-17 -62,-30 -42,-18 -12,-5 -48,-33 -63,-49 -138,-76 -212,-113 -25,-13 -33,-27 -51,-40 -32,-23 -21,-10 -54,-23l-154 -110c-41,-30 -175,-100 -305,-205l-753 -672c-30,-24 -17,-25 -43,-50 -55,-52 12,36 -70,-72l-431 -445c-50,-65 -117,-88 -120,-219 73,-68 96,-105 218,-47 72,34 49,119 39,275zm4726 -344c78,25 75,14 113,83l76 120c46,79 38,5 65,131 14,68 37,95 31,161l-89 7c-50,-141 24,-72 -164,-234 0,-186 -118,-172 -32,-268zm2596 117l-68 0c-131,-141 -34,-237 85,-232 37,105 28,137 -17,232zm-2404 -173c157,-44 264,317 265,356 2,44 7,108 -10,146l-28 36c-45,-77 -64,-203 -105,-284 -79,-155 -154,-113 -122,-254zm5308 4c-36,109 -48,40 -84,157 -15,49 -1,16 -32,57 -26,34 -16,42 -35,83 -15,33 -26,35 -45,72 -30,57 -8,57 -57,114 -48,56 -10,35 -79,104 -142,141 -190,-41 -290,-78 -167,-63 -294,143 -294,-120 -1,-185 130,-231 213,-300 14,-12 16,-8 36,-29 49,-51 62,-197 111,-243l159 -80c118,-35 150,13 276,52 76,24 157,99 121,211zm-9763 398l-27 -47c-22,-116 64,-274 116,-366 41,-74 18,-88 140,-200 45,-41 56,-74 139,-81 150,154 27,150 18,338 -4,77 0,142 -74,166 -110,35 -68,-36 -168,66 -55,56 -65,102 -144,124zm-74 -496c-141,51 -211,-95 -132,-221 34,-54 36,-82 55,-141 138,-57 109,29 109,187 0,33 2,70 -4,98l-28 77zm4598 -381c97,-15 94,26 157,22 28,-2 94,-51 158,28 54,66 23,459 -169,390 -46,-17 -102,-34 -133,-77 -44,-61 -54,-294 -13,-363zm-5722 4c30,11 113,60 140,80 94,69 236,140 260,262 6,33 9,69 9,108l-49 40c-64,-30 -64,-57 -102,-111 -30,-42 -71,-78 -94,-115 -95,-154 -61,-39 -122,-192 -19,-47 0,0 -21,-31 -14,-20 -8,26 -21,-41zm6522 474c-104,-36 -78,-64 -94,-179 -104,-65 -149,-23 -146,-74 3,-45 81,-119 107,-139 58,-42 29,5 137,-99 85,-83 74,-54 110,-99 21,-27 -1,-5 18,-23 42,78 -29,63 73,125 19,11 32,23 44,34 -33,142 -95,115 -145,206 -38,69 -64,185 -104,248zm4739 -700c92,16 85,29 119,85 38,65 113,167 132,235 55,198 47,54 46,211 -1,107 24,109 -30,190 -80,122 -76,-41 -172,-142 -27,-28 -59,-24 -100,-46 -225,-114 1,-272 -16,-411 -13,-102 -9,-63 21,-122zm-10501 340c-34,-105 -40,-38 -65,-160 89,-92 121,-282 132,-291 61,-53 103,116 94,171 -33,207 -30,284 -161,280zm-612 -515c100,-22 233,174 276,238 39,59 178,219 0,244 -27,-31 -76,-129 -163,-226 -15,-16 -31,-32 -43,-49 -13,-18 -19,-40 -39,-66 -24,-31 -58,-45 -51,-98 9,-74 4,-22 20,-43zm414 -131c89,-60 105,63 96,161 -34,29 -41,32 -95,43 -11,-68 -27,-131 -1,-204zm10969 18c185,34 194,404 49,375 -74,-15 -44,-36 -79,-83 -29,-37 -44,-45 -51,-98 -14,-104 52,-158 81,-194zm239 -92c0,-100 9,-139 66,-179 74,22 126,12 150,81 22,60 -13,148 -12,206 3,115 -90,82 -122,59 -33,-25 -82,-99 -82,-167zm-5486 446l-12 -42c-10,-120 124,-221 148,-272 57,-125 24,-2 69,-168 14,-52 11,-37 41,-75 28,-35 16,-40 45,-80 9,4 35,-10 50,75 28,153 -102,163 -142,246 -10,21 -33,291 -136,323 -40,12 -51,0 -63,-7zm-611 -663c70,24 141,126 171,201 44,111 110,151 54,294 -68,-27 -80,-39 -128,-77 -31,-24 -22,-5 -49,-42 -48,-66 -69,-79 -75,-120 -15,-86 -20,-195 27,-256zm6422 586c-130,-194 161,-346 232,-402 37,-30 99,-86 138,-100 34,21 49,25 69,68l-45 63c-29,39 -27,26 -62,57 -14,12 -39,44 -55,60 -39,42 -48,87 -146,195 -20,23 -29,44 -58,57l-37 8c-2,0 -6,0 -8,0 -20,-1 -22,-4 -28,-6zm-5974 -555c24,69 28,96 -20,143 -42,-23 -48,-36 -50,-100 26,-31 27,-50 70,-43zm113 -402c107,0 91,17 125,99 45,110 62,305 15,391 -15,26 -19,30 -32,60 -22,47 -8,35 -54,61 -59,-78 -24,-84 -15,-179 9,-103 -9,-127 -72,-163 -169,-96 -20,-249 33,-269zm-734 536c0,61 -74,363 -258,192 -47,-44 -115,-241 -333,-228 -86,4 -159,50 -219,42 -102,-12 -110,-148 -265,-306 -34,-34 -60,-32 -89,-55 -40,-32 -25,-47 -83,-59l4 -88c36,-22 204,-74 259,-124 15,-14 14,-18 34,-31 271,-183 212,-362 347,-475 17,-14 19,-8 41,-24l183 -133c92,-44 108,-85 202,-190 52,51 115,-4 214,114l92 142c66,177 40,65 77,159l88 146c44,56 109,156 125,226 15,61 13,146 20,220 22,221 -117,154 -148,105 -18,-29 -2,-16 -30,-50 -48,-59 -142,-203 -226,-94 -29,38 -9,157 -15,221 -20,195 -20,-1 -20,290zm2347 886c-118,99 -394,69 -457,223 -39,94 -15,195 -93,245 -91,59 -207,31 -237,-51 3,-55 5,-56 -5,-111l-19 -98c-101,-168 -249,121 -283,163 -20,25 -91,64 -108,68l-26 -86c19,-29 26,-38 43,-59 40,-49 104,-87 150,-132l131 -239c46,-77 82,-478 24,-584l-17 -26c-2,-1 -5,-5 -7,-8 -32,12 -21,6 -41,29 -30,33 -61,76 -74,124 -28,105 -28,50 -87,105 -30,28 14,4 -36,32 6,-98 108,-283 109,-495 0,-87 -16,-443 -3,-480 37,-106 12,-46 101,-175l122 -165c49,-57 162,-83 224,-26 87,82 111,141 143,170 76,69 158,178 232,214 53,25 215,171 237,218 113,243 45,217 -67,409 -55,95 -79,15 -77,240 1,128 11,170 51,252 26,51 18,64 36,122 23,73 32,27 34,121zm-3632 -464c-30,33 -37,71 -51,101 0,0 -103,150 -116,197 -33,115 34,251 40,275 18,72 6,86 46,127 29,30 47,56 73,84 58,61 11,27 85,85l141 173c9,15 71,175 34,246 -61,116 -147,67 -200,284 -22,89 -5,55 -52,115 -146,0 -172,-7 -275,-78 -12,-9 -135,-145 -227,-105 -64,28 -125,155 -224,84 -67,-47 -255,-169 -304,-48 -28,68 2,125 -112,161 -80,25 -318,-131 -286,130 6,52 25,66 25,118 -175,57 -158,-21 -219,-43 -70,-25 -18,20 -120,-51 -26,-18 -51,-26 -62,-100 -24,-178 331,-199 403,-233 70,-33 81,-32 103,-107 16,-57 2,-122 -41,-155 -126,-96 -197,-32 -288,12 -37,18 -45,49 -152,21 -118,-31 -157,-263 -350,-303 -227,-47 -217,4 -323,71 -21,-12 -36,-22 -55,-37 0,-173 143,-511 133,-598 -7,-54 -32,-51 -48,-110 -21,-80 -5,-176 -28,-270 -222,-28 -162,194 -316,218 -230,35 -132,-600 -131,-752 0,-94 36,-212 61,-300l234 -485c100,-169 -30,-46 145,-230 61,32 90,98 150,128 147,73 357,212 527,112 45,-27 41,-37 100,-42l36 37c-23,205 -71,30 -75,312 -1,79 31,183 84,217 196,128 219,33 403,64 114,18 179,104 242,167l139 149c94,92 -59,2 157,143 88,58 243,28 340,-9 69,-27 92,-8 150,18 66,28 134,85 169,144 1,2 3,6 4,8 2,3 3,6 5,9l26 46zm8773 -1152c0,302 -2,472 -134,712 -19,35 -19,47 -39,80l-291 557c-2,2 -4,5 -5,8 -2,2 -4,5 -6,8 -5,8 -12,23 -17,34 -25,61 -6,28 -46,72 -56,62 22,18 -90,145l-454 578c-112,112 -103,149 -210,248 -54,51 -106,142 -158,195l-332 373c-126,126 -127,108 -254,217l-279 191c-95,78 -459,326 -563,380 -94,49 -59,43 -145,90 -38,21 -31,27 -71,47 -26,14 -64,21 -86,32 -47,25 -84,82 -160,20 50,-83 146,-219 218,-277 196,-157 85,-62 264,-166 101,-59 103,-95 177,-137 30,-17 41,-22 71,-46 44,-36 32,-20 84,-48 25,-13 54,-30 75,-42l147 -128c2,-3 4,-6 6,-8l60 -44c83,-76 152,-165 248,-248 173,-149 151,-30 258,-109 79,-58 68,-22 112,-71l31 -34c177,-178 221,-299 240,-597 42,-29 42,-36 117,-39 110,-3 164,17 232,-70 31,-38 -4,-55 11,-120 10,-42 115,-151 125,-174 7,-85 -14,-160 39,-221l270 -385c21,-38 40,-47 57,-73 13,-21 10,-24 22,-43 11,-17 19,-21 30,-36l99 -162c42,-126 63,-255 81,-310 24,-69 66,-128 18,-194 -123,-9 -143,110 -206,176 -19,19 -16,3 -46,34 -41,41 -5,44 -100,51 -59,-82 -70,-243 -6,-339 26,-39 35,-86 62,-121 20,-25 26,-24 41,-51 73,-127 196,-224 302,-325 102,-97 34,-150 86,-279 118,-18 96,58 108,298 7,130 7,221 7,351zm-12832 -436c53,14 45,9 82,35 11,72 10,187 -7,249 -83,24 -63,34 -139,-40 -30,-29 -45,-34 -42,-94 5,-75 73,-107 106,-150zm13011 258c-20,-21 -6,18 -26,-36 -14,-37 -10,-108 -3,-146 82,-14 125,66 74,124 -20,23 -25,32 -45,58zm-13058 983c-94,12 -90,-83 -190,-56 -85,22 -70,120 -46,175 29,67 36,141 55,220 23,98 64,114 19,193 -24,-28 -21,-39 -34,-63 -30,-57 -36,-15 -68,-74l-56 -87c-16,-24 -30,-75 -45,-99 -20,-31 -35,-37 -59,-84 -82,-158 -73,-130 -75,-331 -1,-152 -8,-356 -7,-518 0,-103 40,-145 20,-237 -19,-92 -12,-175 -11,-274 1,-37 -8,-94 11,-120 23,-32 75,-19 99,-3 123,81 -56,245 -50,436 3,108 77,196 124,233 75,57 19,12 69,74 84,106 80,73 161,206 37,61 157,327 83,409zm10702 -1485c70,-57 162,-33 329,-33 64,-1 118,-7 173,-15 89,-12 421,-11 489,5 161,37 330,-58 235,142 -68,144 -57,422 -4,489l125 163c70,73 53,236 -47,333 -113,-30 -109,-40 -136,-242l-24 -159c-13,-64 -16,-100 -55,-140 -92,33 -59,109 -96,273 -7,31 -8,37 -14,73 -13,70 -20,24 -61,153 -7,21 -18,47 -30,68 -40,0 -53,7 -90,-6 -50,-19 -1,-29 -82,-13 -39,93 -6,183 -123,213 -102,-122 -91,-391 -120,-463 -13,-34 -25,-31 -37,-80 -35,-144 -17,-117 -90,-262 -22,-43 -30,-32 -52,-68 -19,-30 -16,-48 -39,-76 -41,-48 -18,-5 -49,-69l-202 -286zm-9758 1787c-31,-42 -72,-57 -86,-120 -14,-62 -12,-116 -40,-171 -28,-54 -36,-103 -57,-152 -40,-92 -203,-323 -365,-259 -54,21 -58,82 -53,154 7,90 41,76 -18,154 -188,-35 -140,-61 -229,-301 -65,-176 162,-274 200,-534 22,-146 97,-239 5,-449 -21,-50 -13,-41 -51,-81 -50,-54 -50,-118 64,-119l997 -4c106,0 251,-20 314,33 -16,68 -98,149 -153,237l-130 197c-63,139 -60,80 -88,160l-107 220c-58,122 -158,669 -159,800 0,87 15,172 -44,235zm4601 -1916c47,-42 174,-17 292,-18l796 -3c73,24 6,56 -55,160l-93 154c-70,102 -112,350 -228,303 -66,-63 -24,-62 -132,-88 -143,121 -45,108 -126,183 -113,-33 -102,-106 -138,-154 -48,-64 -142,-286 -275,-443 -23,-27 -13,-5 -32,-47 -19,-42 -8,-40 -9,-47zm-5652 1c31,-31 45,-29 110,-16l3 101c-52,1 -64,5 -93,-25 -27,-29 -19,-56 -20,-60zm4291 832c-111,0 -19,-70 -209,43 -49,28 -17,-3 -46,44 -24,38 -22,29 -48,58 -49,55 -83,198 -17,254 149,126 145,-101 400,267l83 112c137,220 357,3 521,109l185 156c56,66 41,27 59,84 38,125 38,107 185,103 43,66 100,229 2,291l-61 -39c-23,-19 -70,-71 -96,-75 -194,-23 -53,493 -56,615 0,63 -32,112 -82,136 -22,12 -116,19 -153,109 -33,81 19,114 43,182 107,308 44,115 -92,343 -38,65 -77,132 -128,185l-84 74c-46,38 -255,127 -255,-143 0,-127 3,-134 128,-258 41,-42 79,-77 100,-136 51,-141 46,-74 -2,-280 -6,-26 -12,-64 -26,-92l-94 -142c-68,-86 -40,-74 -166,-199 -106,-104 -93,-112 -93,-261 0,-53 9,-142 24,-173 10,-20 84,-108 99,-124 130,-137 -15,-317 -28,-342 -49,-98 -124,-202 -243,-228 -61,-12 -162,-10 -210,12 -39,18 -42,26 -87,35 -291,59 -411,-206 -531,-320 -16,-15 -28,-19 -44,-34 -37,-35 -17,-52 -162,-100 -120,-40 -422,62 -378,-225 15,-102 105,-279 105,-351 0,-134 -38,-124 -92,-207 -96,-4 -192,-27 -255,30 -27,23 -44,49 -73,71 -213,164 -418,-116 -444,-140 38,-77 -1,-99 157,-236 33,-29 72,-62 104,-94 90,-92 81,-73 166,-132 88,-63 23,-59 173,-127 29,-13 33,-19 56,-37 103,-81 433,-150 512,-195 65,-38 17,-30 145,-50 71,-10 126,4 189,6 455,15 309,-77 490,-71 60,2 76,37 125,69 131,83 110,67 322,67 200,-1 269,83 408,198 167,137 345,96 225,303 -59,102 -22,89 -102,134l-97 60c-114,75 -94,63 -199,207 -34,46 -46,94 -63,132 -24,51 -46,71 -66,144 -30,107 -109,178 -224,178zm5717 -975l0 -69c99,-69 107,-57 214,41l432 444c87,95 181,186 233,302 19,42 44,60 63,109l54 127c19,50 181,582 62,616 -3,1 -178,-26 -102,116 25,46 27,8 48,93 26,102 37,132 21,239 -13,89 3,156 -13,249 -18,109 -46,106 -98,188 -124,7 -253,-59 -332,-151 -33,-39 -53,-34 -101,-18 -34,121 -2,137 -100,188 -26,13 -19,14 -37,29 -47,41 -49,14 -85,46 -33,28 -8,24 -56,62 -73,56 -56,178 -126,239 -24,21 -52,27 -75,43l-98 138c-25,86 -16,266 -3,354 8,59 34,77 68,114 11,12 23,19 33,26 83,-10 200,-38 289,-6 40,57 56,147 6,201 -68,74 -260,63 -370,179l-97 111c-42,37 3,17 -59,35 -32,-168 29,-311 -200,-262 -69,14 -102,51 -149,97l-128 123c-69,-25 -102,-89 -64,-171 32,-70 64,-114 45,-218l-33 -28c-155,39 -208,198 -298,301 -30,35 -26,56 -52,91l-182 277c-107,147 -337,43 -480,19 -101,-17 -337,-119 -435,-165 3,-97 -16,-204 35,-274l40 -115c35,-208 -69,-281 -200,-148 -49,50 -116,105 -200,118 -18,-63 -31,-108 -14,-188 12,-58 12,-33 36,-80l73 -282c5,-120 11,-227 148,-188 37,10 49,26 67,51 41,58 55,90 106,141 105,103 123,96 251,32 54,-27 41,-3 75,-55 39,-59 58,-70 71,-164 43,-313 -188,-376 -281,-553 -53,-100 -88,-147 -80,-272 5,-74 -26,-97 15,-184 62,-129 304,-321 256,-464 -64,-188 36,-170 118,-321 77,0 79,-11 109,44 23,41 39,55 72,84l78 79c142,166 82,384 147,507 27,51 39,1 73,95 121,20 222,49 349,-2 50,-20 71,-55 106,-90l84 -108c15,-19 9,-16 28,-40 21,-26 20,-29 43,-63 22,-34 20,-24 44,-48 34,-32 19,-30 46,-58 31,-31 85,-59 143,-47 40,8 81,58 106,87 97,117 67,154 110,280 40,119 44,167 127,267 52,63 212,95 267,5 60,-98 69,-151 176,-207l76 52c23,20 87,135 163,20 84,-127 125,-231 -40,-313 -95,-47 -160,-59 -279,-16 -154,56 -43,153 -200,124 -16,-212 106,-163 130,-355 16,-126 -44,-231 -14,-348 12,-45 30,-46 47,-84l73 -175c48,-147 -17,-255 -150,-332l-111 -72c-15,-14 -12,-14 -36,-27 31,-176 106,-180 -18,-323 -26,-30 -11,-17 -30,-49 0,0 -29,-47 -30,-50zm1576 -233c90,-10 101,-13 162,33 57,45 138,134 73,210 -4,5 -56,40 -67,44 -56,20 -108,-8 -160,-21 -29,-139 -106,-123 -8,-266zm-4221 882c-73,-5 -267,-117 -411,-12 -94,68 -169,205 -239,297 -32,41 -25,68 -53,117l-72 109c-113,-41 -116,-118 -67,-208 22,-40 22,-91 46,-124l194 -304c25,-50 44,-64 67,-101l147 -181c33,-52 134,-119 175,-165l164 -162c117,-99 261,-100 397,-55 -23,38 -12,47 -55,82 -95,79 -69,22 -139,148 -16,29 -63,53 -94,210 -25,122 44,266 -60,349zm-8354 -844c0,-182 24,-217 110,-253 58,-24 151,-98 275,-83 50,124 21,553 21,727l3 755c0,43 -11,77 -33,105 -42,-30 -115,-235 -139,-279 -50,-90 -131,-469 -133,-472 -39,-93 -104,-446 -104,-500zm1011 203c-18,-21 -25,-40 -29,-77 131,-153 151,-127 228,-197 34,-31 57,-49 97,-32 -9,37 -109,118 -131,155 -21,36 0,13 -33,45 -23,21 -2,-3 -21,18 -2,3 -14,20 -16,23 -51,74 -22,36 -95,65zm708 -365c14,70 40,200 -6,278 -51,89 -439,53 -311,-87 27,-29 72,-66 95,-89 79,-81 79,-153 222,-102zm11321 168l-84 10c-157,-134 -64,-241 -21,-257 119,-44 175,134 105,247zm-4167 -149l121 -105c89,-42 502,-113 577,-113 133,0 281,38 433,38 381,-2 278,50 397,70 70,12 187,72 243,113 4,3 28,20 30,21 69,47 116,67 88,182 -18,77 -23,134 -26,226 25,18 50,45 76,69 23,22 55,58 59,99 4,56 -85,168 -18,250 125,154 242,77 323,214 30,52 60,30 19,144 -53,148 12,10 -72,176 -98,192 24,451 -122,505 -110,-56 -84,-189 -197,-273 -102,-75 -291,-92 -417,-11 -65,42 -39,68 -63,118l-103 133c-28,32 -26,48 -43,76l-160 184c-85,36 -143,-75 -152,-103 -5,-19 -1,-58 -4,-85 -3,-37 -11,-44 -16,-78 -31,-237 -6,-79 -72,-216 -65,-135 -218,-109 -265,-204 -80,-161 -62,-103 -105,-183 -311,-3 -158,285 -528,173 -112,-34 -150,-140 -173,-181 -54,-93 -98,-134 -10,-236 25,-30 42,-78 32,-122 -30,-133 -155,-51 -125,-218 14,-83 80,-170 150,-216 74,-48 29,-42 99,-83 84,-49 162,-78 221,-143 23,-183 -147,-72 -197,-221zm5422 743c-206,-16 -139,-85 -207,-187 -21,-31 -49,-45 -56,-141 -7,-111 61,-172 135,-254 26,-29 60,-80 76,-122 23,-62 21,-91 48,-145 7,-15 54,-269 156,-203 112,72 23,502 -2,615 -15,71 -33,82 -48,147 -27,113 17,125 -102,290zm-1615 -826c-46,0 -81,-3 -105,-35 -8,-12 -130,-263 122,-186 21,96 56,136 -17,221zm-12017 149c-21,-40 -40,-110 -55,-165 -23,-77 -8,-112 35,-157 58,18 99,107 114,190 3,14 138,326 32,384l-66 28c-2,-3 -6,4 -10,5l-19 69 57 62 -17 82c-80,24 -97,-60 -126,-129 -122,-277 -65,-222 33,-342 12,-15 10,-15 22,-27zm12800 90c0,-223 74,-297 147,-444l101 -200c95,-157 230,-124 182,233 -8,61 -20,67 -45,112l-122 178c-66,69 -118,217 -233,210 -24,-32 -30,-32 -30,-89zm596 -537c34,-15 50,-25 90,-37 31,61 27,84 -7,137 -72,112 -19,198 -80,311 -22,41 -26,99 -57,125l-164 124c-2,2 -5,5 -7,7l-146 129c-41,41 -53,50 -137,36 -16,-81 8,-52 60,-100 212,-193 316,-176 382,-468 9,-37 29,-89 39,-130 12,-42 13,-88 27,-134zm-14011 144c-27,0 -42,-4 -52,-28 -19,-48 9,-44 19,-54 31,-34 53,-55 88,-69 80,-33 126,-96 224,-58 9,28 10,59 -15,95l-140 95 -124 19zm9882 -185c-4,-77 -8,-130 33,-180 50,-62 61,-59 159,-63 323,-12 1050,-8 1364,-2 171,4 797,-28 860,47 63,74 32,705 32,814 0,67 25,150 -36,188 -84,52 -464,12 -580,21 -176,15 -156,-60 -278,-140l-184 -143c-2,-2 -5,-5 -7,-6l-340 -223c-120,-47 -2,-33 -148,-76 -62,-17 -175,-85 -335,-123 -52,-12 -129,-19 -186,-35 -70,-19 -109,-32 -175,-40 -78,-10 -115,-2 -179,-39zm-5170 -8c-16,-42 -27,-246 156,-257 123,-8 285,4 376,3 315,-3 1355,-16 1608,2 196,15 193,46 193,239 0,143 0,286 0,430 0,103 33,282 -99,317 -81,22 -311,6 -400,4 -104,-2 -96,25 -176,-29 -145,-99 -21,-56 -114,-109 -52,-29 -62,-52 -122,-89 -115,-72 -77,-73 -198,-128 -110,-51 -16,-37 -138,-69 -51,-13 -36,-18 -68,-38l-480 -161 -363 -71c-43,-3 -156,5 -175,-44zm-2863 -210c134,-88 244,-70 447,-69l1535 0c259,0 527,-40 702,74l5 87c7,249 -71,118 -266,192 -77,29 -181,37 -257,56 -52,13 -76,27 -131,38 -176,37 -110,49 -194,72 -164,47 -46,9 -154,66l-408 273c-44,29 -56,25 -103,69 -178,169 -186,142 -427,138 -381,-6 -759,85 -751,-187l2 -809zm5536 942c-214,0 -170,-169 -170,-315 -1,-663 -67,-669 262,-673 152,-2 316,-3 469,2 137,4 311,-7 462,-3l945 0c324,0 346,3 294,270 -90,23 -171,16 -281,22 -113,6 -181,19 -273,47 -73,22 -186,31 -252,61 -49,23 -55,27 -113,44l-215 111c-54,29 -62,18 -102,56l-181 133c-39,37 -63,35 -95,62l-82 75c-123,103 -98,108 -209,108l-459 0zm6992 -925c123,33 92,126 0,146 -36,-25 -46,-38 -55,-97l55 -49zm-993 -95c80,-32 121,22 158,61 93,97 -35,196 -117,285 -91,98 -41,238 -163,179 -13,-6 -227,-237 52,-472l32 -32c25,-22 3,-7 38,-21zm-12636 125c-42,-29 -43,-30 -15,-74 44,17 32,10 53,44 -16,15 -13,14 -38,30zm-857 76c-5,-58 -12,-59 28,-100 30,-31 54,-35 95,-49 82,-30 84,-83 200,-52l-5 83 -230 131c-30,8 -62,-4 -88,-13zm13615 -413c111,-41 202,-30 203,111 -95,65 -77,143 -231,-28 11,-53 8,-46 28,-83zm-2107 136c-144,0 -170,-92 -102,-180 94,0 278,42 228,174l-126 6zm-8863 -118c53,-59 164,-142 239,-163 27,42 75,72 80,138 10,146 -224,106 -303,83 -15,-45 -11,-17 -16,-58zm10730 39c-136,-58 -76,-166 -30,-204 46,4 24,2 60,25 0,94 17,102 -30,179zm813 -6c-54,-10 -131,-9 -153,-55 -36,-74 30,-84 98,-94 95,-15 97,20 148,59 38,28 240,87 295,119 -41,188 -172,86 -246,38 -81,-53 -10,-43 -142,-67zm-5615 -867c36,-33 52,-59 115,-59 501,9 2368,-26 2452,21 94,53 72,155 72,272 -1,767 117,648 -688,647 -286,0 -1807,16 -1943,-7 -62,-155 -19,-671 -8,-874zm-7991 546c109,58 72,55 77,197 2,64 20,232 -30,255 -3,2 -16,6 -20,7 -21,7 -23,5 -42,9 -59,-80 -22,-100 -52,-193 -30,-91 -50,-76 -36,-208 17,-14 66,-50 103,-67zm13128 76c41,-29 45,-33 67,-74 39,18 74,46 102,77 -3,58 -21,105 -88,102 -57,-3 -63,-53 -81,-105zm-7851 -675c119,-18 297,-6 407,-3 249,9 637,-15 901,-6l1063 1c65,-4 125,31 137,78 18,68 7,363 7,452 0,134 33,331 -62,381 -74,39 -751,28 -896,26l-1365 -1c-364,0 -272,81 -300,-589 -3,-71 -2,-145 7,-213 11,-87 19,-114 101,-126zm-5903 691c0,-234 47,-222 172,-255 98,-27 275,-157 275,21 0,57 -75,343 -102,399 -31,66 -20,42 -82,74 -53,28 -30,46 -106,64 -165,39 -157,-157 -157,-303zm11822 137c-69,-61 -71,-47 -100,-73l-96 -72c-63,-56 -54,-30 -176,-146l76 -27 256 175c54,47 180,95 185,223 -79,2 -15,1 -71,-37 -33,-23 -38,-11 -74,-43zm-11098 -233c-46,-110 -49,-204 20,-294 106,-11 110,33 116,129 5,81 11,157 -43,203 -31,-11 -65,-26 -93,-38zm2073 -160c10,81 9,10 -67,104 -40,50 -63,35 -106,79 -36,35 -60,62 -96,86 -99,65 -5,24 -100,83 -58,36 -11,10 -45,48l-159 116c-92,72 -241,25 -292,75 -33,32 -28,78 -49,131 -36,92 -147,208 -214,246 -125,71 -283,268 -360,283 -62,11 -95,-1 -124,-39 -44,-54 -93,-234 11,-337 79,-79 91,-104 177,-110 167,-11 206,11 354,-105 112,-88 17,48 140,-134l76 -108c21,-34 58,-72 84,-99 111,-113 136,-84 244,-122 47,-17 86,-38 129,-52 67,-23 74,-39 126,-61 113,-51 53,-54 110,-70 29,-7 136,-17 161,-14zm10464 178c-7,-123 27,-128 35,-235 6,-74 22,-148 47,-214 46,-123 -14,-164 83,-322l38 -75c177,-10 133,115 137,338 2,146 20,317 -42,429 -38,1 -65,-6 -95,-7 -106,-2 -79,99 -130,149l-73 -63zm1034 50c-62,-14 -93,-28 -138,-59l-200 -85c-30,-10 -42,-2 -76,-18 -133,-64 -45,-228 -31,-264 24,-61 34,-73 116,-73 155,0 137,-15 239,43 111,63 141,-20 345,74 48,22 61,15 82,61 25,57 32,311 -24,364 -97,52 -233,-24 -313,-43zm-12345 -311c13,12 9,0 26,28 11,18 5,2 10,24 24,112 -118,281 -148,357 -27,66 -39,50 -67,103 -32,61 -3,37 -63,95 -16,16 -194,161 -259,46 -53,-95 79,-160 123,-234l129 -196c27,-50 36,-57 62,-97 45,-68 82,-124 187,-126zm10502 683c-110,-68 -222,-143 -320,-229 -38,-34 -458,-320 -550,-403l9 -65c39,14 80,22 125,35 125,36 44,10 110,46 38,22 81,17 129,29 55,14 51,32 94,49 42,17 85,18 126,32 43,15 65,37 110,49 48,13 77,18 119,37 29,14 70,24 102,40l423 349c67,70 -39,263 -72,318 -145,28 -177,-8 -226,-189 -29,-107 -108,-55 -179,-98zm-11420 -998c103,48 110,97 110,237 0,141 32,203 -44,239 -46,-52 -32,-46 -32,-160 0,-34 -3,-66 -9,-100 -11,-58 -1,-38 -32,-76 -17,-21 -33,-26 -29,-70 6,-48 36,-70 36,-70zm11706 545c-23,-39 -45,-78 -55,-127 -33,-167 23,-82 -54,-311 -21,-64 -36,-263 12,-320l97 67c30,19 64,56 83,74 51,47 180,253 198,300 51,139 122,232 57,363 -36,-5 -23,-2 -51,-20 -43,-27 -67,-60 -138,-37 -35,109 53,78 38,128 -7,24 -32,33 -60,29 -50,-7 -110,-118 -127,-146zm-708 -367c48,18 93,17 142,43 109,58 192,48 224,118 26,54 13,29 0,59 -34,13 -117,8 -171,1 -48,-6 -74,-34 -117,-49 -52,-19 -101,-21 -143,-40 -50,-23 -67,-29 -123,-47 -62,-19 -89,-14 -141,-43 -57,-33 -85,-23 -124,-45 -38,-21 -15,-23 -55,-36 0,0 -186,-19 -77,-125 76,-74 219,21 268,36 74,23 67,20 129,54 53,29 93,15 134,38 27,15 25,24 54,36zm-8781 -231c44,-13 773,-9 892,-9 255,-1 1100,-12 1327,9 47,4 78,-3 113,110 13,43 9,411 8,493 -1,99 29,320 -110,340 -133,20 -1563,1 -1758,1 -531,0 -555,51 -564,-119l-5 -549c0,-180 -34,-237 97,-276zm-1055 505c-24,-189 176,-192 322,-290 62,-42 46,-18 112,-45l208 -108c81,-38 133,-19 121,71 -6,44 4,23 -32,44l-197 116c-22,14 -83,36 -109,49 -61,30 -145,78 -209,106 -124,57 -144,96 -216,57zm-1713 -435c19,21 33,39 52,62 -44,78 -92,86 -197,116 -142,41 -127,89 -291,67l3 -103 433 -142zm276 -78c170,4 85,212 -18,147 -2,-2 -5,-5 -7,-6 -3,-1 -6,-4 -8,-5 -44,-26 -30,-8 -68,-48 12,-39 27,-89 101,-88zm13723 -4c156,57 93,23 154,78 -39,214 -273,50 -366,45 -81,-5 -169,-6 -238,-28 -188,-59 -191,-23 -180,-154 140,-40 527,23 630,59zm-13052 315c-1,-47 -9,-94 1,-140 6,-29 106,-214 155,-272 157,-6 122,67 118,204 -3,134 -48,162 -75,279 -23,105 -25,201 -82,270 -57,69 -83,119 -161,172l-50 -44c-7,-181 142,-315 152,-355 4,-17 4,-45 4,-65l-62 -49zm-194 -356c-1,-5 -7,4 -2,-31 2,-21 0,-6 12,-29 54,4 68,8 72,45 -32,29 -35,31 -82,15zm10901 -84c40,-60 126,-56 186,-10 4,41 -1,63 -21,94l-165 -84zm-11231 -212c20,64 40,60 -1,120 -63,92 -134,54 -225,101 -49,26 -67,23 -131,29 -91,10 -452,148 -500,117 -15,-10 -111,-181 133,-236l467 -96c127,-20 133,-48 257,-35zm7728 58c36,-4 34,-2 55,13 -20,46 1,19 -38,47l-17 -60zm-2306 -414c62,-10 96,-28 158,-1 103,45 53,411 43,447 -37,129 -188,75 -214,70 -19,-175 -39,-353 13,-516zm8057 556c-77,-13 -187,-16 -255,-30 -86,-17 -230,-61 -302,-108 -71,-46 -44,3 -70,-61 89,-75 241,12 367,28 75,10 140,14 211,24 75,11 128,19 211,25l32 75c-72,73 -76,65 -194,47zm-2433 58c29,13 22,27 62,43l242 86c33,11 43,19 73,30l-12 99c-109,4 -87,19 -178,-29 -57,-29 -108,-21 -173,-48 -49,-21 -103,-49 -157,-65l-466 -197c-49,-12 -271,-82 -269,-166 2,-120 360,62 465,96 137,44 97,39 158,65 27,11 71,14 94,24 26,11 31,31 60,44 39,18 63,1 101,18zm-10102 69c110,-102 127,-41 246,-104 58,-31 64,-29 134,-50 46,-14 28,-12 62,-28l327 -108c109,-28 194,-107 262,-38 -34,49 -59,22 -112,56 -2,1 -5,4 -8,5 -123,91 -268,141 -387,230 -33,25 -94,40 -133,62 -109,62 -149,-14 -252,142 -29,43 -60,52 -115,76 -56,-52 -41,-152 -24,-243zm11540 -391c-13,11 -32,30 -42,32 -30,4 -37,-25 -42,-32 13,-23 15,-37 42,-34 20,2 42,33 42,34zm-11117 568c15,-41 15,-31 65,-45 82,-23 18,9 62,-39 32,-35 36,-13 137,-73 46,-28 90,-22 117,-39 56,-38 -49,6 99,-60 57,-26 10,-15 57,-46 26,-18 55,-14 85,-34 39,-26 4,-18 62,-43 33,-14 51,-14 73,-31 49,-36 -2,-26 64,-39 164,-34 39,-35 141,-69 55,-19 35,1 74,-32 21,-18 34,-59 125,-33 -16,60 -3,21 -43,49l-41 38c-33,23 -87,22 -124,47 -43,29 7,15 -52,36 -191,70 -68,46 -157,81 -45,19 -21,-3 -62,29 -83,67 -71,28 -119,54 -60,34 49,5 -109,60 -60,20 -24,14 -43,34 -47,50 -83,20 -121,38 -41,19 16,56 -151,73 -7,7 -47,106 -139,44zm10625 -485c-13,-123 -30,-217 16,-309 105,20 102,87 135,187 49,154 42,253 21,404l-97 10 -75 -292zm-11044 54c67,-55 136,-12 224,-65 89,-54 150,-26 210,-65 35,-24 5,-24 109,-38 119,-16 194,-104 333,-64 -9,37 39,44 -109,56 -91,7 -44,13 -97,47 -28,18 -80,21 -112,31 -48,17 -28,30 -97,47 -47,11 -85,13 -125,31 -46,20 -54,35 -100,47l-233 56 -3 -83zm10710 -346c102,-34 108,52 81,80 -36,37 -114,19 -81,-80zm-1167 171c-106,-8 -80,-30 -148,-51 -31,-9 -55,-4 -79,-14 -6,-3 -32,-25 -52,-35 17,-98 21,-113 127,-104l560 98c79,30 102,31 194,41 103,11 134,4 184,38 55,38 139,27 166,57 16,17 38,122 -34,157 -86,42 -835,-180 -918,-187zm-3270 -457c6,-42 -37,-325 136,-237 49,25 78,87 127,161 21,31 11,34 30,62 75,111 132,181 251,246 43,22 128,14 138,133 -70,56 -176,12 -267,40 -76,23 -73,70 -145,185 -190,7 -135,17 -239,34l-24 -51c15,-29 136,-109 181,-142 -122,-187 -61,-23 -132,-264 -74,-5 -86,-14 -133,39 -52,59 -26,83 -24,159 -27,70 -147,71 -208,70 -59,159 26,19 12,204 -85,55 -238,90 -343,13 -88,-65 -40,-79 -56,-154 -15,-69 -72,-20 -59,-159 40,-59 103,-69 155,-118 66,-62 56,-86 144,-134 103,40 211,53 316,-9 71,-42 75,1 140,-78zm3452 210c-54,-31 -77,-16 -139,-30 -60,-14 -74,-37 -119,-54 -78,-30 -50,0 -120,-48l2 -78c62,-42 179,-1 290,22l597 110c53,13 76,32 142,43 22,3 52,4 78,12 24,7 34,15 60,22 -61,194 -113,121 -373,97 -115,-11 -139,-53 -286,-59 -92,-4 -74,-4 -132,-37zm-10500 342c69,-100 169,-73 267,-100 58,-15 80,-34 134,-48l444 -109c200,-38 279,-98 435,-113 115,-12 82,-28 135,-49l730 -185c35,-15 96,-40 74,46 -11,45 -77,58 -116,69 -52,15 -84,40 -133,49 -46,8 -36,-3 -76,15 -185,83 -144,41 -206,68 -22,9 -35,23 -58,33l-631 197c-136,82 -366,-6 -463,61 -151,106 -123,106 -239,123 -128,19 -126,104 -278,45l-19 -102zm6044 -682c120,-139 106,-91 237,-12l-29 100c-167,17 -124,-5 -208,-88zm4326 -207c110,13 261,2 368,1 147,-1 253,12 394,20 132,8 307,5 444,5 79,99 59,97 38,233 -14,86 5,181 -92,192 -91,11 -173,-34 -249,-47l-695 -130c-42,-17 -63,-25 -116,-31 -49,-4 -88,-1 -126,-14l-210 -78c-30,-176 127,-164 244,-151zm-8161 128c-8,19 26,31 -89,42 -213,19 -51,43 -317,74l-628 147c-80,16 -129,42 -206,54 -160,26 -63,0 -208,53 -69,26 -140,18 -213,35 -84,20 -6,27 -209,57 -25,4 -85,15 -105,22 -55,19 -33,20 -102,31l-622 149c-101,10 -124,10 -205,45 -72,31 -114,17 -195,42 -80,26 -132,61 -146,-24 -12,-71 5,-118 26,-187 20,-63 22,-153 34,-227 15,-90 15,-136 109,-149 433,-57 571,-33 954,-58 66,-4 137,-26 221,-33 76,-6 154,-15 237,-21 128,-11 477,-5 629,-26 331,-45 596,-30 835,-59 65,-7 170,-29 200,33zm9552 -67c139,-44 914,-27 1154,-14 140,7 274,-2 413,-2l44 72c42,57 41,218 47,295 17,186 31,159 50,286 16,108 8,64 -6,79 -35,36 -279,18 -325,18 -245,0 -153,-18 -281,-49 -106,-26 -165,-37 -254,-85 -41,-22 -57,-50 -103,-67 -138,-50 -118,67 -222,86 -75,14 -190,-171 -238,-244 -64,-99 18,-1 -72,-97 -28,-28 -31,-54 -66,-90 -22,-22 -69,-63 -85,-86 -13,-18 -49,-88 -56,-102zm-12638 74c-40,-79 -19,-92 18,-164 39,-74 49,-65 145,-67l2716 -10c120,-1 141,-13 162,58 -59,39 -293,63 -358,66 -105,4 -258,0 -382,6 -533,26 -1017,73 -1561,88 -112,3 -291,12 -388,31 -63,13 -138,7 -196,15 -74,11 -99,17 -156,-23zm11222 -412c82,23 2182,16 2571,7 98,-3 373,-18 349,124 -7,42 -70,40 -127,40l-942 -3c-66,0 -209,13 -291,13l-1600 0c-75,0 -113,-19 -159,-49l-1 -92c80,-32 111,-64 200,-40zm-3784 270c-41,-34 -6,-21 -60,-29 -169,-25 -72,-86 -195,-121 -65,-18 -135,-4 -161,-51 -42,-77 -34,-480 27,-551 98,-115 140,70 224,108 93,-37 -5,-58 152,-75l56 62c61,47 11,8 53,64 74,100 92,341 42,470 -20,49 -28,28 -39,81l90 15c46,-47 51,-76 26,-164 -14,-49 -20,-60 -11,-100 15,-65 101,-8 122,3 13,43 8,80 34,124 27,48 33,32 65,78 45,65 2,160 -63,185 -47,17 -70,9 -116,41 -130,90 -208,85 -316,19 -3,-136 35,-82 70,-159zm-6973 -307c389,0 778,-5 1167,-5 177,1 374,-14 525,-18l682 4c179,1 225,-29 260,69 -88,56 -182,43 -312,40l-1050 0c-112,0 -222,23 -323,21 -105,-2 -202,-5 -304,-2 -100,3 -934,17 -990,-2 -8,-21 -27,-66 -14,-87 23,-38 271,-20 359,-20zm10874 -227c122,0 245,2 368,1 103,-1 216,-20 318,-16l967 -4c335,-24 597,-2 987,-15 30,31 46,49 72,94l-62 68 -814 7c-236,27 -835,10 -1088,12 -108,0 -192,10 -302,9 -105,0 -210,0 -315,0 -452,1 -489,43 -447,-125 109,-45 178,-31 316,-31zm-10934 -561c68,-20 442,44 555,76 131,37 224,0 388,56 40,14 105,22 167,29l386 58c136,12 269,28 393,54 129,27 271,26 395,51 63,12 123,36 178,44 157,23 430,-41 220,274 -158,19 -2186,1 -2602,8 -262,3 -394,30 -273,-219 27,-56 28,-111 49,-160 17,-38 22,-11 43,-60 12,-29 9,-46 29,-76 27,-40 48,-55 72,-135zm10579 420c4,-190 11,-191 176,-242 61,-18 121,-9 184,-25 47,-12 74,-39 134,-48 55,-8 136,-7 186,-22 46,-13 51,-38 160,-48l877 -175c180,-57 193,-25 337,-82 61,-24 115,-21 177,-31 100,-15 244,-74 341,-74 152,0 174,93 202,131 12,16 22,21 32,33 21,28 21,49 42,77 19,27 10,6 29,37l69 126 19 279c-3,2 -13,9 -16,11 -54,30 -173,8 -273,16 -143,11 -47,27 -288,21 -158,-5 -440,-5 -630,2 -104,4 -181,19 -301,18l-656 0c-213,1 -616,45 -801,-4zm-9405 -385c-130,-16 -205,-7 -344,-49 -58,-18 -345,-39 -492,-76 -114,-29 -230,3 -234,-137 52,-52 89,-43 157,-31 132,24 141,-5 255,47 124,56 190,-2 404,79 57,22 116,8 178,20 110,19 212,40 334,62 54,9 109,21 176,27 71,6 108,27 159,38 68,14 113,10 181,20 48,6 98,29 150,44 116,32 225,2 319,49 94,47 227,13 324,68 15,70 14,92 -58,92l-671 -110c-124,-28 -209,-20 -339,-58 -118,-34 -231,-17 -348,-43 -63,-14 -69,-32 -151,-42zm-7 -255c-100,-34 -230,-30 -333,-49 -60,-10 -97,-28 -158,-37 -59,-10 -106,-11 -161,-21 -180,-32 -217,-12 -286,-97 14,-65 25,-99 93,-105 152,-13 242,45 308,59 59,13 126,10 178,20 64,13 101,34 149,45 54,13 123,14 178,22 54,8 99,26 158,39l658 127c157,63 218,19 331,61 57,21 88,32 165,37 53,4 112,13 164,27 168,45 34,9 134,24l36 61c-52,63 -38,36 -126,31 -85,-5 -101,-6 -172,-28 -122,-39 -349,-44 -499,-79 -53,-13 -101,-24 -153,-28 -137,-10 -208,-26 -325,-56 -110,-29 -225,-14 -339,-53zm9361 293c14,-140 67,-102 248,-158 168,-52 180,-6 334,-76 43,-20 139,-20 181,-28 77,-15 85,-28 148,-47 60,-19 108,-8 171,-25 63,-18 69,-38 150,-46 177,-19 283,-67 486,-94 66,-9 80,-29 149,-44 64,-14 118,-11 183,-27 59,-15 76,-32 148,-46 42,-8 95,-10 149,-21 96,-18 32,-58 220,-51 18,24 38,55 54,85 -19,22 16,-1 -27,26l-278 77c-34,5 -56,11 -87,19l-243 56c-58,15 -126,11 -179,30 -195,73 -165,19 -320,86 -70,30 -93,18 -174,28 -55,6 -100,37 -154,50 -50,13 -113,18 -170,28l-665 146c-100,18 -126,91 -324,32zm-9829 -1331c70,-34 127,8 185,30l794 344c29,13 62,16 88,28 45,23 15,24 74,43l479 202c65,32 54,0 133,51l279 114c45,24 21,26 71,47 25,11 102,18 114,107 29,232 -425,50 -498,41 -80,-10 -127,-7 -194,-30l-577 -114c-259,-31 -133,-43 -394,-72 -72,-8 -106,-34 -169,-48 -66,-15 -143,-17 -210,-28 -65,-11 -110,-34 -178,-46 -66,-12 -139,-10 -202,-32 -46,-16 -111,-44 -130,-92 -20,-52 9,-120 37,-167 59,-96 198,-330 298,-378zm9789 1118c-21,-92 -41,-92 58,-123l657 -153c63,-24 70,-39 150,-44 258,-16 46,-51 328,-72 93,-7 83,-32 155,-52 41,-12 114,-12 172,-26 63,-15 82,-28 155,-42 45,-8 110,-20 163,-31 54,-11 79,-29 142,-42 52,-10 117,-16 165,-28 82,-22 59,-43 150,-49 66,-4 117,-18 185,-13 12,19 19,25 33,42 -37,86 -170,99 -283,115 -83,12 -86,26 -156,41 -48,11 -110,14 -168,28 -62,15 -39,37 -157,51 -302,37 -137,54 -319,73l-810 186c-60,21 -109,28 -161,34 -92,12 -87,30 -150,48 -58,17 -120,13 -162,24 -60,16 -70,27 -147,33zm-4006 -753c-17,18 -15,19 -51,27l-2 -84c49,18 38,7 53,57zm3941 519c-67,-89 -170,-165 -37,-255 112,-76 267,-130 281,-139 85,-53 210,-90 292,-128 35,-16 19,-19 61,-42l293 -138c43,-13 41,-4 79,-27 39,-23 12,-20 66,-40 137,-50 77,-45 137,-71 32,-13 51,-13 80,-24l210 -105c24,-12 45,-14 77,-28 43,-19 21,-20 64,-41 32,-16 50,-12 79,-25 38,-18 31,-29 59,-45 26,-14 47,-11 78,-24 44,-18 38,-28 65,-43 215,-114 378,169 491,303 79,93 124,156 107,292 -143,68 -128,57 -305,86 -54,9 -81,38 -147,51 -79,15 -150,2 -239,48 -72,37 -117,21 -225,50 -203,54 -145,32 -312,68 -55,12 -107,36 -154,46 -48,9 -120,13 -165,28 -46,16 -26,22 -71,34 -102,28 -144,-5 -232,43 -74,41 -63,28 -160,38 -159,17 -184,90 -472,88zm-4387 -285c0,-143 35,-119 127,-247 -9,-46 -78,-192 62,-160l64 46c98,90 -74,274 -13,428 12,29 32,42 50,68 87,128 50,186 28,255 -54,174 100,191 113,320 15,138 -105,103 -23,350 37,111 7,284 -17,404 -18,89 -5,344 -5,451 0,153 1,304 -2,456 -4,178 32,334 -36,415 -164,-43 -79,-211 -78,-310l-2 -610 -66 3c-86,136 24,906 -58,953 -95,26 -115,-37 -149,-104 -75,-149 -15,-314 -30,-438 -15,-125 -306,-92 -323,-87 -209,54 -59,426 -114,543 -34,40 -84,78 -159,34 -56,-33 -54,-105 -54,-177 -1,-300 7,-460 -12,-750l3 -279c0,-282 -38,-394 -38,-508l36 -567c25,-135 103,-30 106,-28 133,115 483,95 636,36 73,-29 110,-40 112,-145 3,-209 -158,-184 -158,-352zm-493 340c-113,-1 -256,-69 -165,-177 38,-46 211,-142 165,-218 -42,-3 -22,16 -39,37 -83,11 -117,54 -205,26 -80,-26 -75,-44 -94,-125 96,-103 65,-58 135,-96 39,-20 39,-36 66,-52 21,-13 41,-15 69,-37 92,-73 154,-159 265,-154 27,31 46,57 69,87 117,7 173,2 121,155 -24,71 -262,345 -285,394 -7,15 -41,140 -102,160zm-2328 2477c-40,-59 -57,-40 -82,-110 -50,-141 -14,-50 -60,-123 -27,-44 -17,-100 -39,-144 -14,-29 -20,-17 -35,-58l-83 -385c-21,-102 -24,-223 -34,-331 -13,-133 -31,-223 -5,-355 21,-104 15,-218 33,-331 18,-120 50,-198 70,-309 10,-51 22,-95 44,-138 27,-53 21,-88 42,-139 13,-30 24,-38 37,-68 12,-26 11,-36 21,-71l163 -384c26,-31 25,-12 43,-61 43,-116 28,-56 63,-121 12,-21 18,-46 27,-65 58,-131 83,-128 108,-168 9,-16 16,-43 27,-63 17,-31 24,-25 43,-60l248 -354c160,-171 225,-263 425,-360 29,18 36,30 67,51 27,18 43,38 66,52 107,67 400,113 547,136 83,13 129,-9 140,96 12,114 15,762 34,863 11,55 24,18 24,78 0,35 -17,48 -17,92l15 587c0,194 4,388 4,586 0,187 19,365 16,540 0,58 -5,170 1,255 6,73 31,164 31,247 -1,151 13,539 0,612 -86,37 -619,25 -744,21 -84,-3 -189,-18 -263,-18l-977 0zm6317 -3130c-285,-18 -153,-244 -117,-425 18,-88 14,-113 102,-119 44,44 45,96 62,172 8,36 9,64 21,95 73,173 -25,161 -68,277zm-8109 -167c-24,-13 -51,-17 -69,-22 -71,-20 -36,-24 -130,-56 -52,-17 -80,-39 -125,-57l-253 -114c39,-85 127,-60 204,-31 28,11 21,17 55,36 55,31 87,23 139,55l201 89c179,59 93,41 193,80l539 222c54,20 71,42 136,61 22,6 47,11 68,22 30,15 25,22 56,37 79,38 47,-15 143,53 109,77 322,84 354,214 -194,52 -106,6 -206,-36 -60,-25 -242,-79 -327,-131l-792 -334c-63,-43 -75,-26 -130,-52 -38,-18 -21,-17 -56,-36zm5210 1182c-43,-70 -156,-198 -140,-279 39,-26 85,-41 124,-5 12,12 28,36 41,51l93 181c36,106 119,154 236,107 55,-21 51,-52 63,-121 32,-188 116,-124 161,-209l-42 -46c-64,2 -142,44 -197,75 -29,16 -80,28 -120,3 -64,-40 -81,-124 -114,-161 -65,-73 -212,-10 -256,-110 -57,-131 142,-148 221,-170 156,-45 178,-76 292,25 63,55 118,74 195,56 42,-94 -1,-89 -14,-184 -13,-93 -53,-257 -165,-278 -126,-25 -105,34 -103,116 -60,48 -123,41 -186,1 -77,-50 -72,-52 -122,-126 -31,-44 -30,-19 -30,-106 38,-30 49,-48 115,-31 24,7 24,15 57,6l49 -31c-36,-46 -52,-74 -117,-108 -60,-30 -232,-131 -253,-192 -27,-81 87,-127 155,-145 64,-16 92,-41 151,-73 34,-18 29,-28 56,-48l147 -75c58,-36 120,-16 162,1 8,36 21,77 29,118 8,48 3,81 10,131 8,59 29,145 71,190l121 165c19,38 37,54 53,90 21,45 12,45 43,89l175 373c51,68 201,226 287,262 32,14 75,18 115,30 138,43 307,114 439,188 15,9 24,11 43,23 37,24 113,103 140,135l101 173c22,73 53,124 61,214 8,95 -9,177 -4,245 7,116 46,160 -34,205 -98,-163 -114,-13 -96,-357 12,-210 -156,-74 -268,-230 -14,-20 -20,-41 -31,-59 -17,-29 -19,-19 -40,-52 -39,-61 -14,-67 -92,-58 8,166 36,98 75,192 35,81 118,198 171,286l191 399c13,28 28,49 46,83 79,147 164,283 185,457 -139,37 -151,28 -288,16 -77,-7 -33,-18 -106,-44 -41,-14 -89,-18 -120,-36 -27,-15 -19,-22 -54,-40l-93 -62c-31,-29 -23,-10 -49,-30 -39,-31 -4,-20 -43,-50 -17,-12 -30,-13 -47,-30 -28,-27 -38,-64 -106,-34 -5,50 122,146 162,187 70,71 126,81 160,114 22,21 29,24 57,34 418,146 483,20 618,91 27,102 14,124 -82,154 -124,38 -347,-20 -488,-45l-360 -188c-69,-49 -84,-76 -138,-137 -99,-110 -51,-38 -120,-155l-109 -152c-13,-21 -8,-26 -25,-54 -43,-72 -93,-126 -132,-203l-304 -354c-63,-76 -26,-124 41,-166 40,-25 135,-5 216,-34 84,-29 85,-83 182,-91 64,-6 166,28 193,58 17,-7 39,-15 48,-30 66,-100 -147,-95 -188,-106 -76,-22 -127,-107 -263,-106 -249,1 -245,395 -572,282 -75,-26 -117,-63 -168,-119 -15,-17 -65,-74 -72,-86zm-959 -1286c-95,0 -142,66 -220,-3 -73,-64 -67,-427 -1,-465 76,-45 154,-11 203,40 6,109 -8,60 -32,139 12,24 43,73 84,85 59,18 75,-15 111,-34 89,-45 169,-26 262,-17 99,9 90,29 167,61 176,72 62,39 161,87 103,50 64,117 31,176 -119,29 -292,21 -425,21 -249,-1 -188,-90 -341,-90zm-4334 -178c-79,-34 -13,22 -130,-54 -64,-42 -204,-60 -243,-135 64,-116 255,-2 414,55l263 119c72,20 75,36 125,57 25,11 57,14 81,25 38,17 29,24 53,37l403 160c66,17 28,25 183,80 53,18 23,13 57,34 44,27 103,26 147,49l192 95c62,24 158,10 165,112 4,74 -53,60 -117,51 -89,-14 -65,-34 -126,-59 -30,-12 -53,-14 -81,-24l-453 -199c-155,-49 -56,-33 -136,-62 -77,-27 -60,-4 -131,-52 -31,-20 -31,-17 -75,-30 -63,-19 -22,-4 -62,-30 -37,-24 -86,-39 -130,-53 -140,-46 -270,-120 -399,-176zm7577 1555l-147 -220c-25,-27 -27,-19 -37,-28 -18,-17 -5,-5 -18,-22 -2,-3 -3,-6 -5,-9l-128 -94c-42,-28 -40,-11 -80,-49 -32,-30 -119,-99 -130,-146 -50,-205 100,-648 -131,-716 -68,-20 -161,-3 -224,17 -46,14 -31,13 -76,-5 -4,-2 -15,-6 -19,-7 -42,-19 -95,-107 -112,-150 -54,-139 -71,-193 -58,-337 5,-59 -21,-196 -3,-249 36,-104 388,-100 453,-111 52,-8 60,-31 94,-49 163,-89 122,-78 252,-154 28,-17 24,-20 45,-33l144 -65c78,-44 123,-52 196,13 48,42 109,99 130,144 48,97 38,47 60,83 21,32 10,72 12,118 32,29 22,12 56,37 96,69 64,52 86,96 19,37 16,25 40,53 23,28 51,77 60,123l-64 282c-35,61 -24,70 -37,146 -30,181 -137,278 -22,423 125,157 311,129 381,37 188,-251 -48,-476 91,-568 13,15 96,156 106,179 30,66 31,39 60,84 22,34 13,51 41,89 21,30 11,5 31,47l125 227c92,151 213,569 238,727 7,49 13,85 18,128 7,63 15,52 27,105l37 520c1,108 -15,172 -14,274 2,105 -2,362 -35,459 -9,27 -11,19 -17,50 -56,266 6,81 -91,429 -21,75 -51,118 -105,164 -85,3 -339,25 -399,-28 -32,-28 -38,-38 -58,-72 -34,-58 -27,-29 -78,-66 -128,-94 -150,-11 -286,-107 -64,-45 -101,-88 -137,-150l-108 -168c-156,-313 -44,-1051 -115,-1228 -65,-161 -25,-161 -49,-223zm1619 -992c-39,22 -4,16 -68,37 -164,54 -75,80 -198,65 -13,-58 32,-102 77,-119l471 -225c42,-20 23,-22 62,-42 25,-13 47,-14 76,-30 26,-14 29,-21 56,-34l270 -123c51,-36 83,-30 139,-70 49,-35 92,-29 140,-57l133 -64c62,-28 116,-80 265,-126 61,-18 33,-36 115,-58 77,-21 131,-128 276,-59 -19,132 -67,81 -206,157l-268 126c-134,91 -39,-8 -203,95 -45,28 -48,14 -132,67 -32,19 -23,11 -64,26 -84,29 -82,41 -133,63 -26,11 -54,16 -78,27 -36,17 -14,18 -57,35 -24,10 -50,11 -77,27 -36,22 -15,22 -51,40 -70,33 -12,-24 -136,61 -52,36 -31,-6 -136,61l-273 120zm-4519 -910c-26,-154 217,-35 228,-30 67,29 123,7 175,58 -32,46 -67,81 -156,81 -69,0 -115,-23 -187,-52 -33,-13 -54,-21 -60,-57zm1582 643c31,90 52,82 99,111l112 97c26,23 3,3 30,21 208,141 87,358 -87,204 -221,-198 -185,-281 -274,-456 -39,-76 -29,-485 -25,-618 3,-194 8,-72 24,-191 140,87 -7,457 121,832zm-6257 -997c147,-123 96,-155 278,-73l323 239c39,38 108,72 163,125l424 321c37,28 19,12 48,43 35,38 15,14 64,43l155 118c47,36 66,55 114,82l206 161c29,30 55,75 26,104 -80,82 -235,-34 -277,-49 -161,-60 -52,-39 -131,-66 -133,-47 -428,-197 -523,-226 -65,-20 -55,-41 -119,-60 -144,-42 -56,-47 -132,-68 -26,-7 -55,-4 -76,-13 -30,-14 -24,-26 -51,-41 -30,-18 -87,-26 -132,-50l-388 -179c-45,-11 -155,-83 -168,-104 -18,-28 -13,-42 -19,-68 29,-36 58,-57 88,-91 27,-30 20,-38 36,-56 26,-29 21,0 52,-38 21,-26 2,-23 39,-54zm8897 981c23,-10 40,-10 71,-21l180 -94c44,-24 98,-32 133,-50 41,-21 22,-23 63,-41 15,-7 48,-14 68,-25 52,-28 12,-32 122,-60 81,-21 51,-39 120,-62 137,-46 59,-23 124,-61 46,-27 90,-26 143,-53 111,-57 132,-86 179,-98 134,-34 42,-28 123,-58l199 -89c184,-76 299,-188 389,-109 -4,53 -36,78 -93,102 -130,56 -191,105 -240,128 -48,23 -81,10 -135,46 -57,39 -67,35 -123,62l-121 62c-43,21 -70,39 -123,59 -56,21 -76,44 -125,61 -146,52 -59,34 -128,67l-502 232c-61,37 9,16 -122,60 -70,24 -51,42 -117,65 -87,32 -193,90 -209,-50l124 -73zm-5625 -952c-10,-11 -26,-52 -14,-73 31,-54 80,59 91,76 -35,9 -52,22 -77,-3zm5367 844c36,-77 106,-139 178,-178 31,-16 34,-10 61,-32l160 -116c105,-61 95,-68 159,-114 28,-20 32,-14 58,-34 21,-17 25,-28 48,-43l160 -116c73,-55 147,-90 215,-151l163 -110c32,-19 25,-19 52,-41l218 -149c310,-179 165,-173 435,-3 73,45 1,14 83,75l16 13c96,121 -138,204 -139,204 -116,83 -63,25 -129,68 -108,70 -26,19 -122,60l-323 162c-118,58 -78,28 -184,92 -36,22 -41,13 -75,29l-250 129c-36,15 -22,13 -58,33 -48,27 -91,31 -131,53 -36,20 -33,29 -59,45l-393 171c-37,19 -11,18 -56,32 -48,3 -80,-53 -83,-70 -1,-4 -3,-6 -4,-9zm-3740 -1060c41,-106 7,-245 53,-340 267,90 76,105 311,191 27,10 37,20 67,30 98,31 178,-13 162,201 -2,28 -7,141 -17,164 -10,24 -28,32 -41,49 -24,32 -13,34 -30,61 -35,55 -257,117 -407,73 -145,-42 -149,-53 -204,-150l106 -279zm-4239 276c-28,-26 -39,-13 -105,-72l-98 -85c-60,-49 -155,-59 -164,-189l35 -42c113,6 96,40 167,88l1068 816c31,20 25,8 56,35l256 202c33,25 62,59 38,121 -88,28 -184,-68 -239,-115 -23,-20 -37,-27 -54,-39l-227 -178c-55,-32 -18,3 -77,-54l-257 -187c-22,-17 -30,-28 -50,-42l-110 -75c-42,-23 -19,-10 -51,-39 -120,-103 -94,-68 -161,-114 -33,-23 -13,-17 -27,-31zm2362 -411c6,84 -20,121 -92,64 -58,-46 -50,-75 -18,-132 45,8 63,22 110,68zm-2125 285c-23,-18 -6,-12 -43,-34 -38,-22 -22,-4 -53,-40 -53,-62 -148,-95 -207,-147 -44,-39 -96,-73 -132,-129 38,-189 162,-76 202,-44l199 155c3,1 6,4 8,5 2,2 6,4 8,5l38 27c33,27 14,15 56,37 61,33 96,101 236,194l550 431c29,23 21,26 47,44l181 135c6,4 16,8 24,13 85,50 62,156 -11,147 -48,-6 -182,-113 -226,-146l-410 -308c-29,-26 -60,-43 -96,-75l-371 -270zm7633 758c-97,-120 52,-175 158,-260 97,-80 91,-41 150,-99l98 -84c31,-22 24,-7 58,-34 80,-65 72,-45 108,-75 25,-20 25,-23 51,-40 37,-23 21,-12 51,-41l584 -424c46,-37 61,-51 110,-73 107,-49 105,-126 245,-123 28,29 32,43 47,82l-140 127c-26,24 -20,23 -50,42 -89,53 -15,23 -114,70 -31,15 -59,48 -94,75l-106 77c-43,38 -47,41 -99,71l-201 153c-40,35 -58,28 -109,73 -70,64 -53,21 -104,66l-310 227c-56,35 -52,17 -106,64 -56,49 -155,102 -227,126zm-3984 -466c-134,1 -56,9 -143,-48 -108,-70 -57,-10 -125,-122 -23,-38 -38,-34 -44,-111 -4,-55 3,-113 25,-159 35,-74 24,-78 95,-219l71 -125c48,-90 158,-252 282,-218 174,49 87,344 80,459 -12,207 -34,142 -63,225 -105,295 -127,204 -178,318zm-3883 -851c78,-136 63,-86 176,-198 69,-69 119,-128 214,-166 45,-1 165,121 194,159l548 681c26,31 48,63 77,92 39,40 55,68 84,99 42,47 -2,17 72,97l158 196c67,91 63,166 -18,225 -77,22 -211,-138 -263,-167 -102,-58 -20,-16 -94,-76l-234 -185c-48,-50 -92,-71 -144,-105 -14,-9 -28,-25 -41,-37 -110,-112 -419,-339 -565,-469l-43 -35c-74,-43 -56,-50 -121,-111zm7694 1059c1,-83 3,-90 61,-127l204 -149c85,-48 289,-217 356,-260l146 -102c56,-63 17,-6 102,-80 34,-30 60,-35 102,-68 40,-32 61,-36 100,-71 24,-22 74,-63 94,-75 60,-37 57,-34 107,-77l156 -105c118,-109 233,-37 109,69l-509 368c-109,73 -110,92 -200,139l-202 152c-60,56 -54,27 -105,64 -25,18 -20,25 -47,45l-255 177c-74,51 -123,110 -219,100zm-1771 -951c-20,-14 -216,-112 -247,-185 30,-51 252,5 305,24 107,38 184,70 135,205 -152,51 -147,-12 -193,-44zm1069 -61c56,14 2,16 130,69 79,32 55,44 93,101 45,67 56,28 40,143l-83 16c-67,-41 -41,-43 -144,-63 -155,-29 -153,-49 -348,-5 -94,21 -74,36 -129,67 -118,68 -264,187 -386,217 -193,48 -466,45 -621,-82 -133,-108 -130,-129 -203,-202 -109,-107 -170,-285 -175,-412 -4,-119 88,-41 185,-3l247 146c75,39 15,20 121,77l187 113c165,80 471,15 638,-68 68,-33 29,-39 132,-59 40,-8 72,-35 126,-49 43,-11 158,-14 190,-6zm-3509 -163c-10,82 -4,91 -4,182 -3,133 26,382 -42,376 -50,-5 -36,-25 -40,-30 -10,-10 -3,10 4,-23 14,-65 7,-123 1,-190 -5,-59 5,-123 7,-211 3,-137 -153,-394 59,-287 37,72 24,99 15,183zm4095 964c-71,-109 47,-160 93,-220l668 -796c101,-111 27,-6 126,-148l131 -145c139,-167 272,-18 306,6 26,17 247,137 161,251l-337 265c-27,26 -103,57 -189,124l-415 317c-39,31 -70,66 -101,82l-318 231c-42,33 -51,60 -125,33zm-3980 -1199c26,-29 128,-70 163,-70 77,0 13,10 81,-4l253 3c1,73 -25,46 -95,61 -143,32 -57,3 -119,5 0,0 -184,42 -253,20 -36,-11 -21,-9 -30,-15zm-2249 677c84,64 125,169 202,253 68,75 113,165 204,240 -4,59 8,63 -14,107 -53,25 -89,3 -119,-38l-226 -282c-26,-47 -54,-63 -79,-93l-153 -186c-24,-26 -23,-20 -42,-50 -54,-87 -17,-2 -74,-95 -6,-9 -269,-305 -344,-428 -34,-56 -137,-118 -142,-199 -5,-82 80,-150 241,88l409 505c62,70 110,158 137,178zm-474 -990c101,43 171,182 214,229l176 219c13,17 25,24 37,40 65,80 126,187 200,258l198 259c46,45 248,297 248,363 0,41 -64,29 -102,28 -65,-53 -77,-81 -145,-158 -41,-46 -106,-158 -202,-255l-192 -251c-67,-90 -140,-163 -201,-257l-101 -122c-19,-20 -15,-20 -33,-45 -92,-126 -148,-134 -153,-285l56 -23zm6403 1272c10,-31 2,-39 17,-66 14,-22 1,-1 20,-20l63 -57c27,-21 18,-18 36,-41 23,-28 21,-18 42,-36l341 -364c29,-27 36,-56 69,-89l411 -452c116,-87 44,-108 220,-168l59 58c-64,87 -1,56 -140,183 -41,38 -104,132 -140,173 -31,35 -51,55 -83,88l-217 255c-26,34 -11,16 -42,46l-175 219c-20,26 -16,19 -41,38 -63,48 -194,266 -350,341 -33,-44 -66,-55 -90,-108zm-5522 -792c33,60 66,76 144,236l209 327c71,114 49,172 -53,221 -51,-45 -96,-96 -147,-154 -22,-26 -19,-35 -30,-48 -33,-41 -9,4 -43,-36l-125 -175c-28,-30 -15,-12 -34,-45l-293 -373c-13,-16 -29,-22 -42,-37l-294 -386c-25,-50 -23,-58 -31,-116 77,-56 123,-123 284,-133 21,30 41,58 66,90l238 388c43,77 36,2 64,93 24,79 20,28 87,148zm5638 223c22,-41 20,-31 52,-65l330 -376c32,-34 27,-17 54,-64 34,-60 267,-314 328,-352 22,-14 38,-25 62,-38 22,24 35,55 52,85 -12,28 -26,48 -47,74 -23,27 -29,27 -47,57 -36,62 -48,63 -103,118l-520 593c-45,64 -47,84 -108,118 -46,-17 -54,-20 -85,-58l32 -92zm-2502 207c-58,-12 -82,-12 -125,-16 -87,-10 -323,-180 -366,-240 -12,-17 -5,-10 -18,-21 -21,-17 -13,9 -48,-43 -5,-7 -10,-17 -15,-24 -88,-133 -4,-137 19,-331 22,-186 -24,-463 146,-532 272,-112 200,-103 365,-318l83 4c11,25 34,64 48,90 91,161 32,144 63,213 17,37 36,20 52,74 -16,73 -53,56 -69,134 -10,46 10,76 -15,145 -13,24 -122,81 -137,87 -11,4 -41,10 -50,13 -81,31 -78,96 -64,189 126,86 244,73 262,208 25,187 -142,209 -33,317 75,-41 13,-43 83,-84 41,37 73,111 101,167 73,145 230,165 226,295 -6,208 -151,267 -269,216 -3,-1 -61,-45 -75,-56 -139,-108 -103,-354 -164,-487zm2179 -302c1,-62 -9,-62 17,-105l458 -808c18,-38 10,-48 38,-80 107,-127 153,-99 251,-39 44,27 42,14 86,33 60,26 119,80 111,144 -7,46 -199,255 -248,307l-263 300c-98,109 -187,245 -297,314 -80,-27 -80,-21 -153,-66zm-5212 -543c15,20 82,110 86,123 21,71 3,90 43,154 93,152 104,113 137,256 -21,1 -36,4 -53,-1 -45,-12 -18,-11 -31,-22l-263 -246c-102,-137 -75,-145 -149,-256 -38,-56 -205,-361 -150,-410 89,-79 187,127 211,167 18,30 30,30 49,55l120 180zm98 -423c50,195 39,-68 66,257 7,91 38,125 -19,177 -47,-33 -105,-160 -129,-195l-87 -122c-44,-56 -90,-141 -103,-218 55,-33 24,-1 95,-61 97,9 154,72 177,162zm4849 966c-26,-103 54,-174 119,-305 23,-45 31,-36 50,-68 15,-26 18,-55 28,-76 18,-36 32,-30 51,-66 31,-56 69,-149 122,-218l86 -137c16,-34 12,-52 33,-83 53,-76 90,-153 152,-170 66,63 18,92 -14,137 -20,29 -17,42 -35,82 -22,46 -25,26 -48,72 -17,33 -16,49 -36,80 -22,35 -23,20 -47,70l-63 107c-30,60 -113,183 -144,261l-84 151c-23,39 -31,29 -50,67 -40,80 -29,75 -120,96zm-291 70c-59,-92 21,-133 44,-179 22,-43 8,-47 42,-88l93 -157c23,-41 10,-45 34,-81 24,-38 18,-4 50,-82l134 -232c20,-39 11,-47 43,-87 45,-55 156,-321 216,-359 84,23 42,91 41,94 -34,91 -274,485 -301,560l-225 415c-23,33 -26,27 -45,73 -23,57 -60,124 -126,123zm-4236 -1367c95,95 65,97 148,242 22,40 37,96 59,134 18,31 29,74 49,112 63,125 66,14 31,290 -10,76 51,239 -12,311 -77,-20 -112,-108 -137,-159 -8,-18 -24,-44 -29,-63 -27,-91 24,-146 -106,-272 -144,-141 -239,-280 -263,-502 69,-44 151,-91 260,-93zm646 687c11,24 16,54 28,75 45,78 136,214 136,292 0,149 13,163 -50,203 -49,-63 -147,-242 -172,-317l-124 -254c-16,-36 -15,-52 -28,-92 -18,-50 -33,-42 -50,-79 -17,-40 -9,-51 -33,-86 -77,-112 -26,-100 -76,-171 -33,-46 -23,-21 -44,-86 -18,-54 -21,-40 -42,-77 -106,-184 72,-216 114,-49 27,106 90,153 123,219 29,56 13,68 98,213 19,31 32,39 47,72l73 137zm3329 550c-8,-84 86,-261 94,-283 36,-98 -20,10 65,-183 16,-36 20,-54 28,-94 15,-72 49,-98 66,-164 41,-164 43,-54 65,-158 15,-74 106,-277 138,-360 22,-59 0,-39 47,-69 73,-48 116,-56 220,6 155,93 -69,285 -122,417 -9,24 -7,33 -24,55 -84,106 -34,64 -80,128 -32,43 -26,37 -54,90 -9,16 -16,30 -28,50l-351 575 -64 -10zm-3407 -929c-19,-34 -18,-13 -39,-55 -20,-42 -59,-150 -105,-221 -35,-55 -53,-34 -36,-156l71 -6c64,0 119,178 142,234 13,31 31,35 44,62 13,27 5,41 18,73 0,1 97,154 131,248 54,148 174,279 128,364 -33,60 -109,-41 -114,-51 -8,-14 -16,-45 -26,-67 -22,-46 -18,-20 -39,-53 -16,-26 -12,-42 -32,-73 -17,-26 -23,-20 -37,-52 -24,-54 -17,-70 -49,-112 -44,-60 -24,-74 -57,-135zm3262 879c-82,-47 0,-193 21,-255l86 -265c32,-165 29,-79 60,-163 29,-80 5,-100 54,-181 33,-54 23,-106 54,-168 60,-120 31,-249 158,-293l34 25c3,108 -24,101 -48,163l-228 658c-9,32 -9,66 -20,100 -14,43 -24,41 -36,68 -24,52 -22,104 -56,165 -54,98 -5,112 -79,146zm-3012 -1444c402,-119 319,24 335,204 10,112 45,242 52,364 8,145 14,244 19,379 3,53 8,73 -32,92 -53,25 -128,-3 -156,-28l-96 -211c-13,-73 -46,-69 -64,-123 -14,-42 -5,-47 -25,-81 -18,-30 -27,-30 -40,-65l-123 -293c-26,-48 -39,-107 -31,-176l161 -62zm2928 1032c-16,43 -21,117 -46,164 -17,32 -27,31 -34,65 -5,26 3,144 -125,117 -27,-78 40,-291 66,-367 27,-79 23,11 59,-176 15,-76 48,-78 63,-161 26,-149 32,-102 61,-170 55,-129 53,-348 184,-465 116,66 58,63 35,216l-263 777zm-2314 -24c-87,-11 -76,-153 -83,-231 -24,-252 -60,-387 -68,-639 -4,-131 -60,-249 113,-212 24,64 38,379 40,473 3,193 84,526 38,603 -11,4 19,14 -40,6zm2070 56c-18,14 -11,11 -37,20 -48,17 -90,14 -94,-46 -10,-153 55,-289 69,-351 33,-147 53,-312 105,-492 55,-191 34,-238 167,-238 67,0 48,-2 110,45 -4,182 -64,247 -77,287 -17,48 -9,104 -34,151 -96,188 -35,97 -97,252 -19,48 -25,86 -43,128 -46,108 -53,216 -69,244zm-1822 -1134c18,67 15,93 28,166 17,93 -3,92 -3,173 0,108 10,152 -67,205 3,83 14,76 41,134 17,37 17,77 28,127 30,141 76,72 63,265l-104 23c-46,-35 -77,-37 -94,-103l-40 -767c-4,-28 -115,-322 148,-223zm1453 1133c-12,-55 -25,-85 -13,-142 9,-44 38,-85 48,-135 12,-69 6,-88 28,-156 13,-39 29,-102 37,-144 30,-160 68,-282 95,-452 6,-41 34,-89 54,-114 53,-5 60,7 90,27 5,92 -4,90 -21,204 -25,175 -39,42 -72,284 -19,141 -40,53 -70,280 -9,67 -22,88 -37,132 -42,121 11,210 -139,216zm-283 -77c31,-111 48,-210 56,-347 7,-103 14,-85 35,-160 11,-40 20,-122 27,-170 17,-116 56,-182 69,-310 8,-69 9,-91 76,-119 54,-22 72,17 114,46 -12,103 -44,183 -62,310 -16,112 -62,176 -67,280 -7,146 -43,160 -60,299 -13,112 -15,189 -113,232 -40,-17 -47,-27 -75,-61zm-1079 -1108c8,-7 18,-23 57,-31 26,-5 48,-2 74,-4 161,-9 262,-61 459,-58 145,2 330,2 451,36 140,39 80,109 77,266 -1,69 -1,120 -84,80 -46,-23 -53,-66 -46,-130 9,-78 10,-87 -14,-151l-96 -17c-54,61 -83,90 -179,106 -217,37 -217,-109 -435,10 -45,25 -42,41 -78,65 -20,13 -21,10 -43,23 -36,23 2,7 -39,25 -120,-96 -94,-4 -104,-220zm55 15060c1,78 -8,69 -39,121 -13,21 2,7 -14,26 -49,55 -231,-4 -292,-18 -113,-25 -221,-19 -331,-34 -76,-10 -94,-29 -143,-39 -114,-24 -197,-22 -291,-54 -126,-43 -368,-74 -556,-146 -19,-8 -46,-17 -73,-24 -172,-38 -80,-45 -203,-68l-407 -145c-84,-23 -171,-73 -249,-116 -50,-27 -85,-21 -131,-52 -50,-33 -80,-33 -125,-58l-476 -257c-41,-21 -23,-8 -59,-33l-420 -260c-39,-21 -39,-38 -83,-61l-108 -75c-25,-19 -27,-23 -51,-41l-156 -119c-54,-46 -81,-43 -201,-163 -80,-80 -79,-61 -196,-171 -27,-25 -22,-19 -52,-39 -16,-11 -30,-25 -49,-43l-93 -91c-24,-27 -35,-25 -51,-40 -16,-16 -13,-29 -40,-52l-364 -368c-53,-55 -135,-131 -173,-192l-651 -904c-15,-21 -23,-21 -41,-51 -15,-24 -15,-39 -29,-63 -16,-29 -25,-24 -41,-50l-67 -117c-10,-20 -13,-37 -27,-62l-254 -479c-9,-24 -11,-46 -21,-73 -15,-37 -46,-76 -61,-119l-104 -262c-26,-35 -35,-87 -48,-132 -19,-63 -39,-44 -55,-130 -21,-111 -58,-149 -81,-258l-75 -264c-11,-59 -32,-83 -46,-136 -12,-48 -16,-111 -25,-162 -9,-56 -31,-73 -48,-131 -12,-45 -11,-100 -22,-161 -11,-62 -25,-93 -36,-145 -32,-147 -70,-493 -83,-646 -5,-60 1,-121 -6,-182 -7,-59 -14,-66 -15,-125 -6,-374 -24,-743 35,-1134 28,-187 35,-485 89,-644 30,-92 18,-222 59,-304 23,-44 18,-12 29,-63 12,-57 4,-102 21,-161 13,-43 16,-34 30,-63 23,-47 17,-84 27,-127 15,-69 152,-507 181,-551l158 -391c30,-104 105,-222 143,-313l86 -188c54,-119 138,-234 197,-352 31,-63 45,-65 69,-114 43,-85 103,-139 143,-222 23,-49 12,-22 38,-54 32,-38 10,-18 32,-60 29,-57 50,-32 78,-105 35,-92 234,-333 315,-416 21,-21 24,-33 39,-53 30,-39 20,-11 46,-45 24,-31 3,-21 34,-57l132 -143c37,-36 44,-69 81,-103 121,-112 243,-256 365,-366l147 -127c25,-25 15,-31 39,-54 22,-19 27,-11 56,-33l145 -132c28,-22 32,-15 57,-33 12,-8 36,-31 48,-43 138,-129 114,-89 207,-161l202 -163c26,-19 30,-13 58,-33 152,-107 288,-198 448,-285l1014 -518c96,-34 172,-81 267,-98 82,-15 52,-38 130,-55l276 -92c139,-60 521,-130 577,-154l453 -99c66,-7 107,-1 167,-16 294,-72 524,-42 803,-86 117,-19 602,-31 716,-8 206,40 467,23 684,52 112,15 163,47 305,55 149,9 179,47 305,66 49,7 123,7 163,21l977 306c35,18 98,26 140,43 47,18 74,34 131,54l557 265c22,9 53,14 72,22 46,20 50,43 115,66 121,43 337,215 461,273 61,29 57,48 108,74 125,63 317,217 429,304 51,40 134,81 182,133l221 196c36,33 66,41 105,78l284 265c34,35 57,58 92,91l132 142c17,24 147,148 216,243l329 403c81,86 154,227 189,267 56,63 119,182 137,203 20,24 23,15 42,50l298 524c66,111 233,440 267,555 17,61 37,68 58,125l58 126c24,39 19,93 37,145 17,52 41,50 57,124 15,72 31,73 50,135l83 282c19,54 12,101 31,152 61,158 46,231 75,290 45,90 43,200 67,297 131,544 124,1213 124,1774 0,65 -13,123 -15,195 -3,140 -61,687 -97,806 -29,96 -23,189 -55,285 -11,34 -27,53 -35,85 -15,60 -12,147 -31,202 -48,140 -105,375 -163,514 -27,66 -33,124 -53,182 -18,50 -18,25 -37,69 -11,28 -14,62 -24,94 -14,45 -24,42 -40,76l-208 471c-20,32 -21,56 -34,84l-274 511c-48,89 -225,336 -269,423l-429 576c-27,33 -31,21 -54,51 -24,32 -18,39 -47,70l-163 177c-25,25 -26,31 -55,62l-187 204c-34,33 -47,73 -78,93l-128 95c-22,18 -40,42 -57,61 -49,60 -132,100 -182,157 -20,22 0,8 -24,29 -9,6 -34,17 -42,23 -36,25 -22,33 -58,61l-589 443c-37,32 -16,19 -61,43 -100,54 -180,128 -279,179l-596 321c-49,22 -28,24 -75,45l-148 74c-122,33 -77,44 -153,67 -108,35 -95,46 -166,70l-253 88c-57,20 -31,23 -77,41l-350 107c-109,42 -234,74 -355,102 -131,31 -245,68 -375,85 -76,9 -117,8 -187,36 -49,19 -140,30 -207,33 -66,3 -638,169 -556,-73 48,-139 450,-134 554,-153 69,-13 125,-37 195,-44 309,-36 188,-51 397,-77 87,-11 113,-36 176,-53 69,-19 131,-24 194,-44 73,-23 97,-40 182,-53l349 -125c127,-28 218,-101 339,-133l490 -228c60,-18 33,-11 76,-41l151 -84c52,-24 36,-28 70,-48 20,-12 60,-21 85,-35l360 -226c39,-26 96,-79 135,-102l150 -99c38,-33 29,-21 70,-47l125 -110c38,-35 38,-20 73,-45l682 -613 554 -636c27,-24 28,-35 51,-65l200 -271c28,-50 16,-26 48,-68 64,-84 123,-204 184,-286l92 -145c23,-35 25,-56 39,-79 22,-37 25,-15 48,-68 19,-46 16,-39 42,-76 27,-38 18,-36 36,-82 18,-45 29,-33 49,-70 14,-26 17,-55 31,-85 19,-38 24,-27 45,-73 10,-21 11,-39 23,-65 22,-47 24,-28 44,-78 13,-34 14,-56 28,-87 19,-39 38,-49 48,-82 15,-53 -6,-42 31,-88 42,-53 35,-106 70,-165 29,-51 35,-115 59,-177 15,-38 25,-37 40,-77 23,-60 29,-113 57,-176 24,-57 26,-122 50,-184 60,-152 39,-169 79,-274 33,-87 53,-207 70,-285 68,-324 140,-889 159,-1212 13,-242 39,-645 -15,-894 -31,-139 -20,-291 -39,-429 -19,-141 -43,-268 -65,-403 -12,-75 -17,-126 -37,-200 -12,-46 -16,-51 -25,-94 -6,-32 -11,-65 -17,-98 -13,-73 -46,-110 -56,-180l-220 -720c-22,-76 -43,-88 -68,-167 -19,-62 -51,-101 -70,-165 -31,-108 -103,-225 -152,-331 -23,-50 -26,-30 -43,-75 -9,-26 -16,-69 -27,-89 -30,-52 -28,-2 -53,-66 -17,-45 -9,-40 -35,-82l-175 -296c-40,-79 -103,-152 -136,-215l-346 -491 -379 -443c-13,-13 -10,-4 -29,-24l-88 -95c-38,-66 -311,-341 -382,-389l-101 -83c-92,-63 -165,-160 -253,-216l-198 -157c-30,-22 -42,-24 -67,-50 -38,-39 -14,-25 -64,-53l-357 -245c-25,-20 -47,-23 -76,-42 -73,-46 -137,-98 -218,-135 -56,-26 -29,-24 -71,-48l-231 -122c-43,-29 -41,-16 -84,-33 -72,-29 -147,-95 -228,-124 -42,-14 -63,-21 -95,-38 -107,-56 -231,-85 -328,-143 -70,-42 -109,-27 -177,-58 -77,-36 -110,-35 -175,-61 -115,-46 7,-14 -175,-61l-366 -106c-75,-29 -129,-25 -203,-46 -70,-20 -92,-40 -184,-51 -79,-10 -129,-14 -202,-33 -140,-35 -264,-35 -411,-61 -247,-45 -626,-54 -849,-57 -54,0 -112,6 -189,7 -148,2 -241,-8 -392,5 -279,25 -545,39 -822,90 -45,9 -62,11 -98,22 -91,28 -216,18 -296,56 -91,43 -97,23 -192,45l-360 112c-52,14 -145,20 -192,43 -108,53 -111,39 -171,65 -22,10 -55,32 -78,38 -35,10 -68,9 -98,21 -48,20 -24,29 -68,49 -35,15 -65,10 -105,27l-477 229c-32,23 -78,29 -120,50 -40,20 -10,6 -41,25 -36,22 -45,14 -82,37 -38,23 -18,25 -69,48 -73,33 -98,64 -153,83 -59,22 -159,93 -217,136 -41,30 -43,22 -83,47l-203 150c-31,21 -51,18 -78,40 -98,78 -180,121 -265,205 -33,32 10,-1 -27,26 -8,7 -32,19 -41,25 -24,17 -30,29 -64,54l-851 808c-61,80 -113,115 -164,190l-110 125c-32,37 -12,35 -47,71 -90,94 -211,271 -291,387 -49,71 -24,50 -95,140 -25,32 -32,28 -52,67 -10,19 -26,66 -36,81 -19,31 -26,21 -48,69 -20,43 -24,45 -42,75 -50,85 -141,217 -169,303 -12,37 -42,59 -88,160l-153 316c-41,69 -234,581 -259,680 -28,110 -99,251 -122,361l-88 383c-8,45 -10,51 -23,93 -61,195 -138,954 -148,1153 -4,79 -16,136 -17,222 -4,582 52,1146 154,1721 11,65 37,113 48,185 32,203 8,62 52,185 27,73 1,116 44,193 31,53 30,115 53,183l143 416c20,47 26,28 44,87 51,167 106,238 139,331 35,100 127,318 190,398l355 598c18,23 22,50 40,77 22,32 30,25 54,65 99,170 224,321 349,474l54 62c26,34 22,33 52,66 86,92 126,160 225,259l410 414c33,27 28,36 55,61 25,22 41,28 67,52l277 247c13,12 20,16 35,29 70,58 150,91 216,151 160,148 235,161 343,245 85,66 160,100 214,139l143 93c47,36 40,17 79,38l307 178c38,19 47,7 86,32 34,21 28,33 68,49 39,16 48,9 88,29l237 117c37,14 55,14 86,31 45,23 140,42 173,64 42,29 18,24 77,40l917 278c151,22 237,64 393,78 147,13 141,44 384,61 140,9 311,22 383,103zm-220 347c17,47 16,28 22,87l-37 26c-130,96 -158,65 -321,114 -74,22 -95,52 -159,88 -84,48 -128,70 -232,70 -137,0 -229,-56 -395,-76l-758 -213c-58,-18 -33,-25 -172,-65 -98,-28 -66,-37 -179,-70 -72,-21 -107,-47 -170,-63 -95,-26 -174,-84 -251,-117 -25,-11 -58,-15 -92,-27 -49,-18 -40,-27 -73,-45 -26,-13 -65,-20 -94,-36l-162 -75c-38,-19 -25,-27 -69,-48l-982 -600c-50,-35 -91,-62 -144,-93l-133 -115c-73,-65 -169,-110 -237,-180l-610 -543c-34,-26 -23,-32 -53,-64 -63,-65 -127,-117 -179,-185 -28,-37 -33,-33 -59,-61 -35,-36 -23,-39 -46,-71 -46,-62 -132,-121 -178,-189 -30,-44 -68,-94 -116,-131l-190 -268c-18,-27 -36,-32 -55,-62l-102 -133c-27,-34 -22,-47 -46,-85l-241 -360c-27,-33 -23,-46 -39,-79l-95 -153c-17,-26 -22,-46 -40,-75l-130 -238c-17,-55 -14,-42 -40,-78 -18,-26 -25,-44 -37,-79 -27,-85 -82,-164 -119,-247l-70 -165c-15,-34 -23,-72 -35,-97l-63 -169c-12,-46 -41,-77 -70,-180 -19,-67 -46,-101 -63,-169l-62 -188c-10,-39 -4,-58 -17,-99 -13,-44 -27,-46 -40,-79 -20,-49 -15,-123 -61,-240 -3,-8 -12,-38 -15,-49l-67 -299c-36,-205 -82,-415 -94,-627 -13,-213 -63,-201 -59,-662 0,-54 -11,-127 -15,-197 -14,-251 10,-575 15,-821 4,-199 21,-301 51,-483 12,-76 12,-159 23,-235l80 -455c14,-78 38,-137 53,-223 8,-44 9,-70 22,-105 12,-34 30,-57 39,-93 28,-108 69,-320 117,-418 32,-63 35,-136 67,-208l106 -285c19,-80 112,-279 150,-358l48 -98c19,-36 21,-64 35,-93 23,-45 25,-31 42,-89 22,-74 17,-32 51,-79 21,-29 17,-62 40,-104 28,-50 27,-20 50,-82 25,-68 11,-39 46,-84 58,-73 74,-163 138,-240l441 -670 505 -632c41,-59 99,-89 133,-141 65,-98 439,-455 538,-547l289 -248c14,-12 20,-23 32,-33 31,-24 15,-7 43,-23l224 -180c80,-87 215,-152 311,-227l237 -155c32,-19 41,-39 83,-61l246 -145c162,-76 364,-216 528,-282 12,-5 33,-12 47,-20 15,-8 15,-14 40,-25 24,-12 71,-21 97,-35 48,-27 12,-28 90,-53l575 -225c38,-13 53,-30 89,-44 41,-15 72,-14 112,-28 178,-62 397,-138 572,-178 76,-17 146,-24 219,-54 75,-30 145,-23 219,-40 93,-22 113,-40 226,-53 152,-16 306,-52 468,-71 171,-19 576,-60 752,-60l406 -14c407,0 1025,77 1433,141l451 90c72,24 126,41 204,52 100,15 100,44 208,58 79,11 122,47 203,62 89,16 132,47 203,69l189 72c36,14 60,4 103,29 60,36 120,45 190,72l634 296c116,60 223,117 342,181l653 406c17,13 21,13 38,28 26,23 0,7 35,31 35,25 51,33 77,53l452 346c33,31 39,25 76,55l339 315c49,29 33,14 75,56l839 938c2,2 4,5 6,7 2,2 4,5 5,7l74 97c42,68 64,96 118,156l101 160c23,42 32,33 57,74l301 496c40,88 103,156 144,248l83 177c96,126 143,318 215,453l111 277c15,77 53,123 76,198 14,45 22,53 40,94l87 277c9,36 12,78 23,108 49,141 18,-12 57,207 9,51 20,59 37,103 30,78 77,334 94,426 30,164 62,296 78,462 7,74 6,168 21,235 18,79 23,143 34,230 30,228 8,781 9,1020 0,180 0,333 -19,505 -8,70 -33,147 -38,224 -5,84 -10,155 -21,236 -10,79 -23,149 -40,220 -18,77 -26,156 -41,234 -16,80 -35,123 -47,188l-299 1019c-16,46 -26,40 -43,87 -14,39 -15,67 -28,102 -13,33 -30,43 -47,85l-120 284c-14,28 -23,60 -37,95 -12,31 -32,52 -48,83 -15,30 -22,68 -36,93l-181 340c-24,48 -37,40 -57,76 -19,35 -12,51 -41,89 -38,49 -25,16 -49,82l-179 278c-12,18 -17,35 -27,51 -23,39 -38,36 -59,71 -26,44 -12,49 -44,87 -20,24 -42,48 -58,73l-195 262c-17,21 -16,14 -32,34 -51,65 -46,84 -119,155 -42,41 -26,23 -57,74 -33,56 -86,85 -125,137 -85,116 -178,207 -253,282l-308 306c-74,99 -41,34 -86,85 -15,18 -10,20 -28,37l-318 270c-39,36 -42,22 -78,52l-337 264c-18,13 -20,19 -35,32l-153 109c-16,12 -21,18 -35,30l-207 120c-132,83 -252,177 -391,249 -39,20 -50,19 -86,45l-354 185c-46,17 -44,29 -84,47 -31,14 -66,11 -98,31 -46,28 -8,30 -81,51 -104,30 -174,86 -273,119 -27,9 -69,21 -99,32l-681 248c-80,19 -143,32 -218,59 -75,28 -145,24 -211,50 -85,34 -224,45 -311,82 -78,33 -151,21 -229,33 -198,29 -240,20 -385,-110 -40,-36 -37,-28 -81,-48 -33,-16 -46,-29 -85,-46 -86,-39 -214,-76 -211,-190 45,-6 70,-1 115,-1 56,1 60,-5 105,-11l1604 -363c36,-10 53,-18 87,-31l544 -202c134,-73 282,-124 424,-190 39,-18 36,-29 73,-46 35,-16 63,-16 93,-39 44,-33 7,-20 71,-44 46,-17 37,-19 75,-46 35,-24 46,-18 80,-36 49,-26 30,-28 80,-53l601 -379 411 -321c68,-41 87,-68 136,-113 41,-39 73,-48 139,-110l851 -875c24,-30 22,-40 48,-69l75 -83c8,-9 20,-25 27,-35 2,-4 9,-13 11,-16l145 -196c26,-30 30,-24 54,-62 21,-33 30,-51 52,-80l151 -214c21,-40 20,-46 46,-85 5,-7 18,-26 21,-31 13,-22 9,-21 23,-41l137 -231c20,-46 25,-32 47,-71 57,-99 118,-201 157,-311l123 -243c47,-114 109,-229 148,-349l154 -444c18,-55 24,-18 45,-88 27,-94 17,-88 60,-187 17,-40 26,-143 40,-197 18,-67 39,-105 50,-169l48 -200c22,-66 22,-143 34,-214 36,-203 47,-77 67,-418 9,-161 56,-239 56,-443 0,-76 6,-156 14,-234 15,-165 7,-1157 -25,-1310 -20,-103 -45,-211 -50,-319 -6,-142 -49,-191 -64,-312 -8,-58 -9,-112 -22,-159 -16,-53 -34,-77 -42,-141 -19,-149 -36,-167 -71,-306 -13,-50 -17,-109 -32,-153 -15,-42 -41,-71 -49,-131 -14,-104 -23,-67 -50,-133 -35,-85 -64,-228 -123,-348l-188 -465c-15,-37 -13,-22 -35,-57 -37,-56 -206,-443 -316,-611 -21,-33 -21,-15 -40,-49l-174 -298c-38,-48 -16,9 -48,-57 -32,-68 -37,-64 -69,-113l-235 -326c-23,-30 -63,-71 -85,-99l-127 -161c-19,-19 -30,-26 -44,-47 -36,-56 14,-3 -39,-52 -52,-48 -88,-113 -123,-152l-143 -146c-21,-26 -16,-27 -41,-49 -46,-41 -55,-40 -97,-87 -84,-97 -178,-207 -287,-273 -50,-30 -30,-49 -127,-121l-474 -390c-50,-45 -123,-78 -175,-113 -30,-20 -21,-26 -47,-44 -25,-18 -33,-11 -61,-32l-749 -468c-100,-39 -165,-100 -248,-131 -22,-8 -47,-13 -68,-22 -67,-26 -186,-106 -256,-124 -34,-8 -40,-10 -67,-25l-790 -298c-64,-29 -157,-34 -222,-63 -75,-35 -142,-32 -222,-56 -252,-77 -516,-98 -769,-159l-848 -90c-193,-10 -448,-2 -664,-1 -210,2 -416,48 -637,63 -114,8 -245,2 -342,38 -107,39 -579,89 -771,159 -51,18 -115,18 -162,33 -61,21 -40,34 -136,50 -103,16 -148,53 -260,79 -113,27 -278,108 -397,141l-653 289c-28,15 -25,23 -53,37 -26,14 -54,21 -73,32l-123 62c-24,11 -36,18 -58,32 -26,17 -33,18 -59,33 -53,29 -61,49 -115,69 -54,20 -62,40 -125,71l-334 215c-28,22 -24,25 -51,41 -106,63 -192,146 -270,201 -27,18 -29,11 -57,33l-98 86c-22,18 -39,23 -63,41 -22,16 -27,26 -49,44l-310 251c-97,66 -173,178 -255,255l-72 72c-128,124 -262,264 -361,397 -2,2 -23,24 -26,27l-296 356c-20,36 -8,27 -36,56l-163 217c-20,31 -19,29 -39,51 -59,64 -31,55 -64,119 -7,13 -67,86 -86,112 -26,36 -36,77 -65,117 -12,16 -27,33 -38,52 -15,27 -12,35 -30,62 -18,26 -22,16 -41,52 -12,23 -11,33 -29,60l-133 248c-22,45 -39,72 -59,123 -18,47 -135,243 -187,373 -23,57 -26,81 -53,131l-153 385c-21,43 -22,106 -42,150 -31,66 -34,38 -49,135 -12,86 -26,81 -51,145 -21,56 -16,91 -32,149l-72 294c-16,88 -37,107 -70,308 -10,62 -22,95 -36,147 -30,111 -9,221 -41,338 -54,200 -45,455 -56,690l-19 496c-1,77 16,114 19,172 16,247 7,469 51,693 24,120 17,221 39,330 11,58 36,86 45,135 36,179 -3,90 63,318l105 454c15,71 37,69 52,130 8,34 4,51 12,81 10,36 21,39 35,69 22,44 21,90 37,145 13,45 33,49 57,139l218 528c32,80 86,147 125,238 74,173 119,216 133,245 28,57 9,65 56,127 29,38 14,12 34,58 34,79 93,147 139,226l259 395c15,22 27,37 40,52 32,36 18,19 43,61 69,115 166,204 240,308 33,46 67,70 93,105 66,93 140,162 212,244l222 248c28,37 57,58 91,92l286 278c70,48 95,95 153,134 44,30 48,57 98,86 26,14 36,22 59,44l302 248c49,44 150,94 221,158 24,22 21,17 55,37 156,92 297,209 459,286l424 231c78,50 182,75 262,118l140 58c61,21 44,39 121,59 72,19 73,26 132,51 43,19 96,25 143,41l279 101c46,18 101,16 148,34 61,23 59,40 133,50 79,10 96,13 162,38 143,54 433,80 606,116 88,18 229,44 321,53 115,12 234,6 347,37zm479 791l748 0c173,0 331,-23 499,-41 177,-19 329,-20 493,-60 88,-21 157,-24 241,-31 97,-7 118,-47 222,-57l224 -49c98,-28 227,-45 329,-78 46,-15 59,-17 105,-24 82,-14 119,-50 210,-64l499 -185c29,-16 78,-21 111,-30 76,-21 34,-18 89,-46 34,-18 64,-13 103,-39 71,-46 124,-39 194,-82l180 -94c25,-11 65,-15 100,-32 39,-19 14,-23 79,-51 47,-20 52,-33 81,-49 30,-17 64,-18 101,-44 114,-78 232,-126 350,-200 29,-19 50,-32 80,-51 47,-28 28,-33 84,-59l125 -72c25,-14 22,-10 49,-29l159 -115c44,-32 133,-74 166,-110 57,-63 159,-119 219,-172 33,-29 53,-36 84,-60l589 -510c87,-87 197,-183 275,-274 53,-60 40,-67 121,-140 38,-35 228,-236 259,-290 25,-42 93,-102 128,-147l173 -231c14,-17 19,-18 32,-34 22,-29 9,-23 28,-51 18,-25 36,-35 59,-72 69,-113 156,-210 219,-328 47,-86 103,-145 147,-231 23,-43 26,-35 50,-81 27,-53 41,-46 61,-84l414 -815c17,-33 17,-57 39,-103l185 -456c8,-29 13,-75 32,-111 71,-135 30,-110 63,-196l152 -515c39,-110 45,-211 84,-308 35,-83 14,-142 35,-238 20,-87 48,-104 51,-226 4,-158 45,-327 60,-483 54,-575 64,-1465 -25,-2043l-43 -363c-7,-35 -27,-77 -35,-107 -19,-72 -19,-177 -34,-236 -23,-97 -44,-109 -56,-220 -9,-85 -42,-122 -59,-204 -20,-100 -80,-349 -121,-427 -23,-44 -22,-53 -31,-99 -15,-75 -20,-52 -44,-100 -16,-30 -17,-67 -25,-107l-125 -293c-14,-33 -16,-62 -31,-98l-89 -185c-17,-27 -45,-141 -129,-275 -54,-87 -77,-191 -130,-276l-105 -168c-18,-33 -25,-65 -48,-96l-433 -664c-31,-37 -27,-54 -48,-83l-190 -229c-7,-10 -22,-28 -28,-37 -24,-32 -8,-13 -24,-41 -18,-31 -44,-52 -66,-78 -26,-30 -42,-46 -61,-69l-456 -512c-27,-29 -39,-33 -62,-69 -44,-71 -16,-21 -74,-69 -97,-81 -175,-184 -279,-258l-69 -62c-17,-19 -50,-44 -75,-66 -23,-21 -45,-41 -69,-63l-73 -72c-20,-20 -49,-28 -79,-52 -41,-31 -46,-31 -86,-56l-875 -617c-48,-28 -32,-33 -87,-57 -51,-22 -40,-12 -85,-45 -41,-32 -58,-28 -98,-47 -77,-37 -282,-174 -438,-244 -36,-16 -72,-18 -104,-38l-179 -96c-44,-29 -54,-16 -100,-30 -44,-14 -49,-28 -86,-45l-399 -154c-29,-9 -76,-17 -102,-27 -40,-16 -47,-31 -101,-44 -57,-13 -53,-1 -98,-30 -25,-16 -4,-12 -42,-25 -10,-3 -49,-8 -65,-11l-997 -238c-234,-70 -189,-23 -362,-57 -84,-17 -137,-38 -229,-48 -356,-39 -1194,-82 -1530,-43 -244,29 -510,22 -747,79 -73,17 -163,23 -244,28 -86,5 -152,40 -223,54 -89,17 -154,10 -237,40 -68,24 -145,27 -215,45l-428 124c-43,15 -64,9 -112,19 -55,10 -40,34 -92,51 -41,14 -62,8 -106,25l-304 115c-39,15 -55,15 -100,31 -99,35 -192,95 -295,120 -38,10 -71,44 -132,70l-320 149c-53,26 -31,32 -91,54l-180 93c-48,37 -13,24 -83,48l-303 183c-11,9 -24,18 -39,27l-888 629c-86,55 -141,125 -215,190l-496 457c-103,122 -233,227 -324,356l-376 448c-108,124 -292,408 -394,560 -32,50 -83,115 -110,164l-83 151c-26,47 -47,43 -71,102 -24,60 -23,44 -50,91 -21,35 -16,56 -42,90 -48,65 -85,148 -121,229l-114 203c-24,43 -12,52 -31,97 -12,28 -36,56 -49,82 -14,30 -12,54 -24,80 -20,44 -33,40 -48,96 -23,87 -54,114 -77,196l-38 93c-38,68 -33,136 -72,204l-164 526c-8,37 -12,81 -23,109 -14,37 -5,4 -23,42 -24,54 -29,116 -37,170 -13,82 -8,46 -34,109 -33,81 -22,158 -38,238 -21,96 -43,99 -49,223 -5,80 -23,166 -36,237 -116,646 -108,1931 14,2542 17,83 12,172 30,250 19,83 47,115 52,216 6,137 19,97 50,187 24,69 19,167 42,233 47,135 93,285 126,423l291 804c15,40 30,48 47,84 14,29 23,62 39,92l318 635c16,36 28,36 54,90l97 176c26,44 28,22 54,76 19,39 35,52 56,89 15,25 29,47 51,80 25,37 30,64 50,93l178 227c26,39 13,44 55,89l237 312c22,36 33,38 59,70 35,44 47,42 70,75l125 163c97,104 208,198 294,307 65,83 159,160 233,238 36,38 42,19 79,64l1136 904c47,40 36,21 81,50 38,25 36,31 88,56l697 403 455 212c40,12 67,23 101,42 38,21 57,21 94,38 34,16 47,33 96,49l607 219c136,28 128,50 212,62 82,13 116,29 198,50 73,18 150,30 226,50l330 75c149,52 220,31 359,58 38,7 62,21 105,30 48,11 75,9 126,15 226,29 549,66 765,66z"/>
 </g>
</svg>
